G75*
%MOIN*%
%OFA0B0*%
%FSLAX24Y24*%
%IPPOS*%
%LPD*%
%AMOC8*
5,1,8,0,0,1.08239X$1,22.5*
%
%ADD10C,0.0000*%
D10*
X000839Y003064D02*
X000839Y007080D01*
X003635Y007080D01*
X003661Y007082D01*
X003686Y007087D01*
X003710Y007095D01*
X003734Y007106D01*
X003755Y007121D01*
X003774Y007138D01*
X003791Y007157D01*
X003806Y007179D01*
X003817Y007202D01*
X003825Y007226D01*
X003830Y007251D01*
X003832Y007277D01*
X003830Y007303D01*
X003825Y007328D01*
X003817Y007352D01*
X003806Y007376D01*
X003791Y007397D01*
X003774Y007416D01*
X003755Y007433D01*
X003734Y007448D01*
X003710Y007459D01*
X003686Y007467D01*
X003661Y007472D01*
X003635Y007474D01*
X000839Y007474D01*
X000839Y009757D01*
X012217Y009757D01*
X012217Y007474D01*
X006390Y007474D01*
X006364Y007472D01*
X006339Y007467D01*
X006315Y007459D01*
X006292Y007448D01*
X006270Y007433D01*
X006251Y007416D01*
X006234Y007397D01*
X006219Y007376D01*
X006208Y007352D01*
X006200Y007328D01*
X006195Y007303D01*
X006193Y007277D01*
X006195Y007251D01*
X006200Y007226D01*
X006208Y007202D01*
X006219Y007179D01*
X006234Y007157D01*
X006251Y007138D01*
X006270Y007121D01*
X006292Y007106D01*
X006315Y007095D01*
X006339Y007087D01*
X006364Y007082D01*
X006390Y007080D01*
X012217Y007080D01*
X012217Y003064D01*
X000839Y003064D01*
M02*
