%
M48
M72
T01C0.0118
T02C0.0236
T03C0.0400
%
T01
X3674Y3300
X3674Y3635
X4068Y4088
X3438Y4521
X3438Y4993
X2965Y4993
X2965Y4521
X2453Y4009
X1705Y4363
X2532Y5545
X2257Y5761
X2729Y5978
X2414Y6371
X2414Y6686
X3398Y5860
X3831Y5545
X4186Y5387
X4619Y5781
X4776Y6096
X4776Y6568
X4698Y7277
X4383Y7277
X4068Y7277
X5013Y7277
X5328Y7277
X5642Y7277
X5957Y7277
X6194Y7710
X6194Y8615
X6194Y6529
X5721Y6371
X6154Y6056
X6509Y5545
X6824Y5741
X6981Y5112
X7572Y5505
X7768Y5308
X7729Y5978
X7611Y6293
X8831Y5308
X9304Y5899
X9737Y5466
X10446Y5466
X11036Y5466
X9698Y4718
X9698Y4324
X9698Y4009
X9698Y3694
X9265Y3300
X9146Y4088
X8831Y4088
X7808Y3930
X7650Y3300
X6784Y3300
X6784Y3615
X5997Y4088
X5997Y4521
X5997Y4954
X5564Y4954
X5131Y4954
X5131Y4521
X5564Y4521
X5564Y4088
X5131Y4088
X4383Y3300
X1154Y6371
X1154Y6765
X9068Y9482
X9265Y6489
X10957Y4127
X10957Y3734
X11548Y3734
X11548Y4127
T02
X1158Y4836
X1158Y5348
X1158Y5860
T03
X1473Y8115
X2473Y8115
X3473Y8115
X4473Y8115
X5473Y8115
X6473Y8115
X7473Y8115
X8473Y8115
X8473Y9115
X7473Y9115
X6473Y9115
X5473Y9115
X4473Y9115
X3473Y9115
X2473Y9115
X1473Y9115
M30
