G75*
%MOIN*%
%OFA0B0*%
%FSLAX24Y24*%
%IPPOS*%
%LPD*%
%AMOC8*
5,1,8,0,0,1.08239X$1,22.5*
%
%ADD10R,0.0276X0.0197*%
%ADD11R,0.0552X0.0316*%
%ADD12R,0.0631X0.0473*%
%ADD13R,0.0340X0.1040*%
%ADD14R,0.0390X0.0140*%
%ADD15R,0.0190X0.0215*%
%ADD16R,0.0181X0.0181*%
%ADD17R,0.0252X0.0252*%
%ADD18R,0.0197X0.0276*%
%ADD19R,0.0512X0.0178*%
%ADD20R,0.0316X0.0138*%
%ADD21R,0.0138X0.0316*%
%ADD22R,0.1064X0.1064*%
%ADD23R,0.0146X0.0375*%
%ADD24R,0.0375X0.0146*%
%ADD25R,0.1516X0.1516*%
%ADD26R,0.0158X0.0197*%
%ADD27R,0.0197X0.0158*%
%ADD28R,0.0237X0.0237*%
%ADD29R,0.1300X0.0827*%
%ADD30R,0.0213X0.0351*%
%ADD31R,0.0440X0.0260*%
%ADD32OC8,0.0476*%
%ADD33OC8,0.0640*%
%ADD34C,0.0130*%
D10*
X001981Y003281D03*
X001981Y003635D03*
X002020Y003989D03*
X002020Y004344D03*
X001548Y004029D03*
X001548Y003675D03*
X001154Y003675D03*
X001154Y004029D03*
X002414Y003635D03*
X002414Y003281D03*
X002887Y003281D03*
X003320Y003281D03*
X003320Y003635D03*
X002887Y003635D03*
X004028Y003635D03*
X004028Y003281D03*
X003831Y005879D03*
X003831Y006234D03*
X003831Y006509D03*
X003831Y006863D03*
X003438Y006863D03*
X003438Y006509D03*
X003044Y006509D03*
X003044Y006863D03*
X001627Y006745D03*
X001627Y006391D03*
D11*
X008831Y006115D03*
X008831Y005643D03*
X008831Y004974D03*
X008831Y004423D03*
X008831Y003753D03*
X008831Y006785D03*
D12*
X001784Y005486D03*
X001784Y004816D03*
D13*
X007150Y003785D03*
X008150Y003785D03*
X008229Y006360D03*
X007229Y006360D03*
D14*
X007354Y006910D03*
X008104Y006910D03*
X008104Y005810D03*
X007354Y005810D03*
X007275Y004335D03*
X008025Y004335D03*
X008025Y003235D03*
X007275Y003235D03*
D15*
X007375Y003372D03*
X007925Y003372D03*
X007925Y004197D03*
X007375Y004197D03*
X007454Y005947D03*
X008004Y005947D03*
X008004Y006772D03*
X007454Y006772D03*
D16*
G36*
X007306Y006860D02*
X007179Y006733D01*
X007052Y006860D01*
X007179Y006987D01*
X007306Y006860D01*
G37*
G36*
X008152Y006860D02*
X008279Y006987D01*
X008406Y006860D01*
X008279Y006733D01*
X008152Y006860D01*
G37*
G36*
X008152Y005859D02*
X008279Y005986D01*
X008406Y005859D01*
X008279Y005732D01*
X008152Y005859D01*
G37*
G36*
X007306Y005859D02*
X007179Y005732D01*
X007052Y005859D01*
X007179Y005986D01*
X007306Y005859D01*
G37*
G36*
X007227Y004285D02*
X007100Y004158D01*
X006973Y004285D01*
X007100Y004412D01*
X007227Y004285D01*
G37*
G36*
X008074Y004285D02*
X008201Y004412D01*
X008328Y004285D01*
X008201Y004158D01*
X008074Y004285D01*
G37*
G36*
X008074Y003284D02*
X008201Y003411D01*
X008328Y003284D01*
X008201Y003157D01*
X008074Y003284D01*
G37*
G36*
X007227Y003284D02*
X007100Y003157D01*
X006973Y003284D01*
X007100Y003411D01*
X007227Y003284D01*
G37*
D17*
G36*
X007478Y003461D02*
X007300Y003283D01*
X007122Y003461D01*
X007300Y003639D01*
X007478Y003461D01*
G37*
G36*
X007822Y003461D02*
X008000Y003639D01*
X008178Y003461D01*
X008000Y003283D01*
X007822Y003461D01*
G37*
G36*
X007822Y004109D02*
X008000Y004287D01*
X008178Y004109D01*
X008000Y003931D01*
X007822Y004109D01*
G37*
G36*
X007478Y004109D02*
X007300Y003931D01*
X007122Y004109D01*
X007300Y004287D01*
X007478Y004109D01*
G37*
G36*
X007557Y006036D02*
X007379Y005858D01*
X007201Y006036D01*
X007379Y006214D01*
X007557Y006036D01*
G37*
G36*
X007901Y006036D02*
X008079Y006214D01*
X008257Y006036D01*
X008079Y005858D01*
X007901Y006036D01*
G37*
G36*
X007901Y006684D02*
X008079Y006862D01*
X008257Y006684D01*
X008079Y006506D01*
X007901Y006684D01*
G37*
G36*
X007557Y006684D02*
X007379Y006506D01*
X007201Y006684D01*
X007379Y006862D01*
X007557Y006684D01*
G37*
D18*
X009363Y007986D03*
X009717Y007986D03*
X009717Y008615D03*
X009363Y008615D03*
X009363Y009245D03*
X009717Y009245D03*
X003457Y006175D03*
X003103Y006175D03*
X001961Y005978D03*
X001607Y005978D03*
X001489Y004363D03*
X001135Y004363D03*
X001213Y003340D03*
X001568Y003340D03*
X008654Y003340D03*
X009009Y003340D03*
D19*
X006637Y006027D03*
X006637Y006283D03*
X006637Y006539D03*
X006637Y006795D03*
X004333Y006795D03*
X004333Y006539D03*
X004333Y006283D03*
X004333Y006027D03*
D20*
X003989Y005151D03*
X003989Y004954D03*
X003989Y004757D03*
X003989Y004560D03*
X003989Y004363D03*
X002414Y004363D03*
X002414Y004560D03*
X002414Y004757D03*
X002414Y004954D03*
X002414Y005151D03*
D21*
X002808Y005545D03*
X003005Y005545D03*
X003202Y005545D03*
X003398Y005545D03*
X003595Y005545D03*
X003595Y003970D03*
X003398Y003970D03*
X003202Y003970D03*
X003005Y003970D03*
X002808Y003970D03*
D22*
X003202Y004757D03*
D23*
X004879Y005525D03*
X005075Y005525D03*
X005270Y005525D03*
X005466Y005525D03*
X005662Y005525D03*
X005857Y005525D03*
X006053Y005525D03*
X006249Y005525D03*
X006249Y003517D03*
X006053Y003517D03*
X005857Y003517D03*
X005662Y003517D03*
X005466Y003517D03*
X005270Y003517D03*
X005075Y003517D03*
X004879Y003517D03*
D24*
X004560Y003836D03*
X004560Y004032D03*
X004560Y004227D03*
X004560Y004423D03*
X004560Y004619D03*
X004560Y004814D03*
X004560Y005010D03*
X004560Y005206D03*
X006568Y005206D03*
X006568Y005010D03*
X006568Y004814D03*
X006568Y004619D03*
X006568Y004423D03*
X006568Y004227D03*
X006568Y004032D03*
X006568Y003836D03*
D25*
X005564Y004521D03*
D26*
X009658Y003360D03*
X009914Y003360D03*
X010170Y003360D03*
X010426Y003360D03*
X010682Y003360D03*
X010938Y003360D03*
X011194Y003360D03*
X011450Y003360D03*
X011705Y003360D03*
X011705Y005840D03*
X011450Y005840D03*
X011194Y005840D03*
X010938Y005840D03*
X010682Y005840D03*
X010426Y005840D03*
X010170Y005840D03*
X009914Y005840D03*
X009658Y005840D03*
D27*
X009442Y005623D03*
X009442Y005367D03*
X009442Y005112D03*
X009442Y004856D03*
X009442Y004600D03*
X009442Y004344D03*
X009442Y004088D03*
X009442Y003832D03*
X009442Y003576D03*
X011922Y003576D03*
X011922Y003832D03*
X011922Y004088D03*
X011922Y004344D03*
X011922Y004600D03*
X011922Y004856D03*
X011922Y005112D03*
X011922Y005367D03*
X011922Y005623D03*
D28*
X011194Y005112D03*
X010682Y005112D03*
X010170Y005112D03*
X010170Y004600D03*
X010682Y004600D03*
X011194Y004600D03*
X010170Y004088D03*
D29*
X010091Y006529D03*
X011469Y006529D03*
D30*
X002717Y006334D03*
X002717Y006802D03*
X001953Y006802D03*
X001953Y006334D03*
D31*
X007180Y005442D03*
X007180Y004702D03*
X008200Y004702D03*
X008200Y005072D03*
X008200Y005442D03*
D32*
X001158Y005348D03*
X001158Y005860D03*
X001158Y004836D03*
D33*
X001473Y008115D03*
X002473Y008115D03*
X003473Y008115D03*
X004473Y008115D03*
X005473Y008115D03*
X006473Y008115D03*
X007473Y008115D03*
X008473Y008115D03*
X008473Y009115D03*
X007473Y009115D03*
X006473Y009115D03*
X005473Y009115D03*
X004473Y009115D03*
X003473Y009115D03*
X002473Y009115D03*
X001473Y009115D03*
D34*
X010370Y009093D02*
X010370Y009397D01*
X010370Y009093D02*
X010066Y009093D01*
X010066Y009397D01*
X010370Y009397D01*
X010370Y009222D02*
X010066Y009222D01*
X010066Y009351D02*
X010370Y009351D01*
X011061Y009397D02*
X011061Y009093D01*
X010757Y009093D01*
X010757Y009397D01*
X011061Y009397D01*
X011061Y009222D02*
X010757Y009222D01*
X010757Y009351D02*
X011061Y009351D01*
X011061Y008767D02*
X011061Y008463D01*
X010757Y008463D01*
X010757Y008767D01*
X011061Y008767D01*
X011061Y008592D02*
X010757Y008592D01*
X010757Y008721D02*
X011061Y008721D01*
X010370Y008767D02*
X010370Y008463D01*
X010066Y008463D01*
X010066Y008767D01*
X010370Y008767D01*
X010370Y008592D02*
X010066Y008592D01*
X010066Y008721D02*
X010370Y008721D01*
X010370Y008138D02*
X010370Y007834D01*
X010066Y007834D01*
X010066Y008138D01*
X010370Y008138D01*
X010370Y007963D02*
X010066Y007963D01*
X010066Y008092D02*
X010370Y008092D01*
X011061Y008138D02*
X011061Y007834D01*
X010757Y007834D01*
X010757Y008138D01*
X011061Y008138D01*
X011061Y007963D02*
X010757Y007963D01*
X010757Y008092D02*
X011061Y008092D01*
M02*
