G75*
%MOIN*%
%OFA0B0*%
%FSLAX24Y24*%
%IPPOS*%
%LPD*%
%AMOC8*
5,1,8,0,0,1.08239X$1,22.5*
%
%ADD10C,0.0050*%
%ADD11C,0.0256*%
%ADD12C,0.0080*%
%ADD13C,0.0060*%
%ADD14C,0.0030*%
%ADD15C,0.0039*%
D10*
X002414Y003970D02*
X002414Y004206D01*
X002414Y003970D02*
X002650Y003970D01*
X002139Y004521D02*
X001430Y004521D01*
X001430Y005781D01*
X002139Y005781D01*
X002139Y004521D01*
X002414Y005289D02*
X002670Y005545D01*
X003753Y005545D02*
X003989Y005545D01*
X003989Y005308D01*
X003989Y004206D02*
X003989Y003970D01*
X003753Y003970D01*
X009304Y003222D02*
X009304Y005978D01*
X012060Y005978D01*
X012060Y003222D01*
X009304Y003222D01*
D11*
X006125Y006155D03*
D12*
X006331Y005860D02*
X006331Y006962D01*
X004639Y006962D01*
X004639Y005860D01*
X006331Y005860D01*
X010497Y007804D02*
X010497Y007986D01*
X010619Y008078D01*
X010497Y008167D02*
X010497Y007986D01*
X010503Y007976D02*
X010619Y007900D01*
X010497Y008434D02*
X010497Y008615D01*
X010619Y008708D01*
X010497Y008797D02*
X010497Y008615D01*
X010503Y008605D02*
X010619Y008529D01*
X010497Y009064D02*
X010497Y009245D01*
X010619Y009337D01*
X010497Y009426D02*
X010497Y009245D01*
X010503Y009235D02*
X010619Y009159D01*
D13*
X004818Y003475D02*
X004530Y003488D01*
X004530Y003775D01*
X004530Y005267D02*
X004530Y005554D01*
X004818Y005554D01*
X006309Y005554D02*
X006597Y005554D01*
X006597Y005267D01*
X006509Y005348D02*
X006390Y005466D01*
X007350Y005202D02*
X007350Y004942D01*
X007480Y004472D02*
X007570Y004472D01*
X007810Y004472D01*
X007900Y004472D01*
X007810Y004472D02*
X007808Y004493D01*
X007803Y004513D01*
X007794Y004532D01*
X007782Y004549D01*
X007767Y004564D01*
X007750Y004576D01*
X007731Y004585D01*
X007711Y004590D01*
X007690Y004592D01*
X007669Y004590D01*
X007649Y004585D01*
X007630Y004576D01*
X007613Y004564D01*
X007598Y004549D01*
X007586Y004532D01*
X007577Y004513D01*
X007572Y004493D01*
X007570Y004472D01*
X006597Y003775D02*
X006597Y003488D01*
X006309Y003488D01*
X007480Y005672D02*
X007900Y005672D01*
X007723Y007615D02*
X007223Y007615D01*
X006973Y007865D01*
X006973Y009365D01*
X007223Y009615D01*
X007723Y009615D01*
X007973Y009365D01*
X008223Y009615D01*
X008723Y009615D01*
X008973Y009365D01*
X008973Y007865D01*
X008723Y007615D01*
X008223Y007615D01*
X007973Y007865D01*
X007973Y009365D01*
X006973Y009365D02*
X006723Y009615D01*
X006223Y009615D01*
X005973Y009365D01*
X005973Y007865D01*
X006223Y007615D01*
X006723Y007615D01*
X006973Y007865D01*
X007723Y007615D02*
X007973Y007865D01*
X005973Y007865D02*
X005723Y007615D01*
X005223Y007615D01*
X004973Y007865D01*
X004973Y009365D01*
X005223Y009615D01*
X005723Y009615D01*
X005973Y009365D01*
X004973Y009365D02*
X004723Y009615D01*
X004223Y009615D01*
X003973Y009365D01*
X003973Y007865D01*
X004223Y007615D01*
X004723Y007615D01*
X004973Y007865D01*
X003973Y007865D02*
X003723Y007615D01*
X003223Y007615D01*
X002973Y007865D01*
X002973Y009365D01*
X003223Y009615D01*
X003723Y009615D01*
X003973Y009365D01*
X002973Y009365D02*
X002723Y009615D01*
X002223Y009615D01*
X001973Y009365D01*
X001973Y007865D01*
X002223Y007615D01*
X002723Y007615D01*
X002973Y007865D01*
X001973Y007865D02*
X001723Y007615D01*
X001223Y007615D01*
X000973Y007865D01*
X000973Y009365D01*
X001223Y009615D01*
X001723Y009615D01*
X001973Y009365D01*
D14*
X006144Y005866D02*
X006458Y005552D01*
X006301Y005552D02*
X006301Y005866D01*
X006458Y005866D02*
X006144Y005552D01*
X006144Y005709D02*
X006458Y005709D01*
X008201Y004439D02*
X008515Y004125D01*
X008358Y004125D02*
X008358Y004439D01*
X008515Y004439D02*
X008201Y004125D01*
X008201Y004282D02*
X008515Y004282D01*
D15*
X002729Y006253D02*
X001942Y006253D01*
X001942Y006883D01*
X002729Y006883D01*
X002729Y006253D01*
M02*
