G75*
%MOIN*%
%OFA0B0*%
%FSLAX24Y24*%
%IPPOS*%
%LPD*%
%AMOC8*
5,1,8,0,0,1.08239X$1,22.5*
%
%ADD10R,0.0236X0.0157*%
%ADD11R,0.0512X0.0276*%
%ADD12R,0.0591X0.0433*%
%ADD13R,0.0300X0.1000*%
%ADD14R,0.0350X0.0100*%
%ADD15R,0.0150X0.0175*%
%ADD16R,0.0141X0.0141*%
%ADD17R,0.0212X0.0212*%
%ADD18R,0.0157X0.0236*%
%ADD19R,0.0472X0.0138*%
%ADD20R,0.0276X0.0098*%
%ADD21R,0.0098X0.0276*%
%ADD22R,0.1024X0.1024*%
%ADD23R,0.0106X0.0335*%
%ADD24R,0.0335X0.0106*%
%ADD25R,0.1476X0.1476*%
%ADD26R,0.0118X0.0157*%
%ADD27R,0.0157X0.0118*%
%ADD28R,0.0197X0.0197*%
%ADD29R,0.1260X0.0787*%
%ADD30R,0.0173X0.0311*%
%ADD31R,0.0400X0.0220*%
%ADD32C,0.0118*%
D10*
X001981Y003281D03*
X001981Y003635D03*
X001981Y003989D03*
X001981Y004344D03*
X001548Y004029D03*
X001548Y003675D03*
X001115Y003675D03*
X001115Y004029D03*
X002414Y003635D03*
X002414Y003281D03*
X002887Y003281D03*
X003320Y003281D03*
X003320Y003635D03*
X002887Y003635D03*
X004028Y003635D03*
X004028Y003281D03*
X003831Y005879D03*
X003831Y006234D03*
X003831Y006509D03*
X003831Y006863D03*
X003438Y006863D03*
X003438Y006509D03*
X003044Y006509D03*
X003044Y006863D03*
X001548Y006745D03*
X001548Y006391D03*
D11*
X008831Y006115D03*
X008831Y005643D03*
X008831Y004974D03*
X008831Y004423D03*
X008831Y003753D03*
X008831Y006785D03*
D12*
X001784Y005486D03*
X001784Y004816D03*
D13*
X007150Y003785D03*
X008150Y003785D03*
X008229Y006360D03*
X007229Y006360D03*
D14*
X007354Y006910D03*
X008104Y006910D03*
X008104Y005810D03*
X007354Y005810D03*
X007275Y004335D03*
X008025Y004335D03*
X008025Y003235D03*
X007275Y003235D03*
D15*
X007375Y003372D03*
X007925Y003372D03*
X007925Y004197D03*
X007375Y004197D03*
X007454Y005947D03*
X008004Y005947D03*
X008004Y006772D03*
X007454Y006772D03*
D16*
G36*
X007277Y006860D02*
X007179Y006762D01*
X007081Y006860D01*
X007179Y006958D01*
X007277Y006860D01*
G37*
G36*
X008181Y006860D02*
X008279Y006958D01*
X008377Y006860D01*
X008279Y006762D01*
X008181Y006860D01*
G37*
G36*
X008181Y005859D02*
X008279Y005957D01*
X008377Y005859D01*
X008279Y005761D01*
X008181Y005859D01*
G37*
G36*
X007277Y005859D02*
X007179Y005761D01*
X007081Y005859D01*
X007179Y005957D01*
X007277Y005859D01*
G37*
G36*
X007198Y004285D02*
X007100Y004187D01*
X007002Y004285D01*
X007100Y004383D01*
X007198Y004285D01*
G37*
G36*
X008103Y004285D02*
X008201Y004383D01*
X008299Y004285D01*
X008201Y004187D01*
X008103Y004285D01*
G37*
G36*
X008103Y003284D02*
X008201Y003382D01*
X008299Y003284D01*
X008201Y003186D01*
X008103Y003284D01*
G37*
G36*
X007198Y003284D02*
X007100Y003186D01*
X007002Y003284D01*
X007100Y003382D01*
X007198Y003284D01*
G37*
D17*
G36*
X007449Y003461D02*
X007300Y003312D01*
X007151Y003461D01*
X007300Y003610D01*
X007449Y003461D01*
G37*
G36*
X007851Y003461D02*
X008000Y003610D01*
X008149Y003461D01*
X008000Y003312D01*
X007851Y003461D01*
G37*
G36*
X007851Y004109D02*
X008000Y004258D01*
X008149Y004109D01*
X008000Y003960D01*
X007851Y004109D01*
G37*
G36*
X007449Y004109D02*
X007300Y003960D01*
X007151Y004109D01*
X007300Y004258D01*
X007449Y004109D01*
G37*
G36*
X007528Y006036D02*
X007379Y005887D01*
X007230Y006036D01*
X007379Y006185D01*
X007528Y006036D01*
G37*
G36*
X007930Y006036D02*
X008079Y006185D01*
X008228Y006036D01*
X008079Y005887D01*
X007930Y006036D01*
G37*
G36*
X007930Y006684D02*
X008079Y006833D01*
X008228Y006684D01*
X008079Y006535D01*
X007930Y006684D01*
G37*
G36*
X007528Y006684D02*
X007379Y006535D01*
X007230Y006684D01*
X007379Y006833D01*
X007528Y006684D01*
G37*
D18*
X009363Y007986D03*
X009717Y007986D03*
X009717Y008615D03*
X009363Y008615D03*
X009363Y009245D03*
X009717Y009245D03*
X003457Y006175D03*
X003103Y006175D03*
X001961Y005978D03*
X001607Y005978D03*
X001450Y004363D03*
X001095Y004363D03*
X001213Y003340D03*
X001568Y003340D03*
X008654Y003340D03*
X009009Y003340D03*
D19*
X006637Y006027D03*
X006637Y006283D03*
X006637Y006539D03*
X006637Y006795D03*
X004333Y006795D03*
X004333Y006539D03*
X004333Y006283D03*
X004333Y006027D03*
D20*
X003989Y005151D03*
X003989Y004954D03*
X003989Y004757D03*
X003989Y004560D03*
X003989Y004363D03*
X002414Y004363D03*
X002414Y004560D03*
X002414Y004757D03*
X002414Y004954D03*
X002414Y005151D03*
D21*
X002808Y005545D03*
X003005Y005545D03*
X003202Y005545D03*
X003398Y005545D03*
X003595Y005545D03*
X003595Y003970D03*
X003398Y003970D03*
X003202Y003970D03*
X003005Y003970D03*
X002808Y003970D03*
D22*
X003202Y004757D03*
D23*
X004879Y005525D03*
X005075Y005525D03*
X005270Y005525D03*
X005466Y005525D03*
X005662Y005525D03*
X005857Y005525D03*
X006053Y005525D03*
X006249Y005525D03*
X006249Y003517D03*
X006053Y003517D03*
X005857Y003517D03*
X005662Y003517D03*
X005466Y003517D03*
X005270Y003517D03*
X005075Y003517D03*
X004879Y003517D03*
D24*
X004560Y003836D03*
X004560Y004032D03*
X004560Y004227D03*
X004560Y004423D03*
X004560Y004619D03*
X004560Y004814D03*
X004560Y005010D03*
X004560Y005206D03*
X006568Y005206D03*
X006568Y005010D03*
X006568Y004814D03*
X006568Y004619D03*
X006568Y004423D03*
X006568Y004227D03*
X006568Y004032D03*
X006568Y003836D03*
D25*
X005564Y004521D03*
D26*
X009658Y003360D03*
X009914Y003360D03*
X010170Y003360D03*
X010426Y003360D03*
X010682Y003360D03*
X010938Y003360D03*
X011194Y003360D03*
X011450Y003360D03*
X011705Y003360D03*
X011705Y005840D03*
X011450Y005840D03*
X011194Y005840D03*
X010938Y005840D03*
X010682Y005840D03*
X010426Y005840D03*
X010170Y005840D03*
X009914Y005840D03*
X009658Y005840D03*
D27*
X009442Y005623D03*
X009442Y005367D03*
X009442Y005112D03*
X009442Y004856D03*
X009442Y004600D03*
X009442Y004344D03*
X009442Y004088D03*
X009442Y003832D03*
X009442Y003576D03*
X011922Y003576D03*
X011922Y003832D03*
X011922Y004088D03*
X011922Y004344D03*
X011922Y004600D03*
X011922Y004856D03*
X011922Y005112D03*
X011922Y005367D03*
X011922Y005623D03*
D28*
X011194Y005112D03*
X010682Y005112D03*
X010170Y005112D03*
X010170Y004600D03*
X010682Y004600D03*
X011194Y004600D03*
X010170Y004088D03*
D29*
X010091Y006529D03*
X011469Y006529D03*
D30*
X002678Y006334D03*
X002678Y006802D03*
X001914Y006802D03*
X001914Y006334D03*
D31*
X007180Y005442D03*
X007180Y004702D03*
X008200Y004702D03*
X008200Y005072D03*
X008200Y005442D03*
D32*
X010356Y007848D02*
X010356Y008124D01*
X010356Y007848D02*
X010080Y007848D01*
X010080Y008124D01*
X010356Y008124D01*
X010356Y007965D02*
X010080Y007965D01*
X010080Y008082D02*
X010356Y008082D01*
X011047Y008124D02*
X011047Y007848D01*
X010771Y007848D01*
X010771Y008124D01*
X011047Y008124D01*
X011047Y007965D02*
X010771Y007965D01*
X010771Y008082D02*
X011047Y008082D01*
X011047Y008477D02*
X011047Y008753D01*
X011047Y008477D02*
X010771Y008477D01*
X010771Y008753D01*
X011047Y008753D01*
X011047Y008594D02*
X010771Y008594D01*
X010771Y008711D02*
X011047Y008711D01*
X011047Y009107D02*
X011047Y009383D01*
X011047Y009107D02*
X010771Y009107D01*
X010771Y009383D01*
X011047Y009383D01*
X011047Y009224D02*
X010771Y009224D01*
X010771Y009341D02*
X011047Y009341D01*
X010356Y009383D02*
X010356Y009107D01*
X010080Y009107D01*
X010080Y009383D01*
X010356Y009383D01*
X010356Y009224D02*
X010080Y009224D01*
X010080Y009341D02*
X010356Y009341D01*
X010356Y008753D02*
X010356Y008477D01*
X010080Y008477D01*
X010080Y008753D01*
X010356Y008753D01*
X010356Y008594D02*
X010080Y008594D01*
X010080Y008711D02*
X010356Y008711D01*
M02*
