G75*
%MOIN*%
%OFA0B0*%
%FSLAX24Y24*%
%IPPOS*%
%LPD*%
%AMOC8*
5,1,8,0,0,1.08239X$1,22.5*
%
%ADD10R,0.0236X0.0157*%
%ADD11R,0.0512X0.0276*%
%ADD12R,0.0591X0.0433*%
%ADD13R,0.0300X0.1000*%
%ADD14R,0.0350X0.0100*%
%ADD15R,0.0150X0.0175*%
%ADD16R,0.0141X0.0141*%
%ADD17R,0.0212X0.0212*%
%ADD18R,0.0157X0.0236*%
%ADD19R,0.0472X0.0138*%
%ADD20R,0.0276X0.0098*%
%ADD21R,0.0098X0.0276*%
%ADD22R,0.1024X0.1024*%
%ADD23R,0.0106X0.0335*%
%ADD24R,0.0335X0.0106*%
%ADD25R,0.1476X0.1476*%
%ADD26R,0.0118X0.0157*%
%ADD27R,0.0157X0.0118*%
%ADD28R,0.0197X0.0197*%
%ADD29R,0.1260X0.0787*%
%ADD30R,0.0173X0.0311*%
%ADD31R,0.0400X0.0220*%
%ADD32OC8,0.0436*%
%ADD33OC8,0.0600*%
%ADD34C,0.0118*%
%ADD35C,0.0079*%
%ADD36C,0.0238*%
%ADD37C,0.0098*%
%ADD38C,0.0157*%
D10*
X001981Y003281D03*
X001981Y003635D03*
X002020Y003989D03*
X002020Y004344D03*
X001548Y004029D03*
X001548Y003675D03*
X001154Y003675D03*
X001154Y004029D03*
X002414Y003635D03*
X002414Y003281D03*
X002887Y003281D03*
X003320Y003281D03*
X003320Y003635D03*
X002887Y003635D03*
X004028Y003635D03*
X004028Y003281D03*
X003831Y005879D03*
X003831Y006234D03*
X003831Y006509D03*
X003831Y006863D03*
X003438Y006863D03*
X003438Y006509D03*
X003044Y006509D03*
X003044Y006863D03*
X001627Y006745D03*
X001627Y006391D03*
D11*
X008831Y006115D03*
X008831Y005643D03*
X008831Y004974D03*
X008831Y004423D03*
X008831Y003753D03*
X008831Y006785D03*
D12*
X001784Y005486D03*
X001784Y004816D03*
D13*
X007150Y003785D03*
X008150Y003785D03*
X008229Y006360D03*
X007229Y006360D03*
D14*
X007354Y006910D03*
X008104Y006910D03*
X008104Y005810D03*
X007354Y005810D03*
X007275Y004335D03*
X008025Y004335D03*
X008025Y003235D03*
X007275Y003235D03*
D15*
X007375Y003372D03*
X007925Y003372D03*
X007925Y004197D03*
X007375Y004197D03*
X007454Y005947D03*
X008004Y005947D03*
X008004Y006772D03*
X007454Y006772D03*
D16*
G36*
X007277Y006860D02*
X007179Y006762D01*
X007081Y006860D01*
X007179Y006958D01*
X007277Y006860D01*
G37*
G36*
X008181Y006860D02*
X008279Y006958D01*
X008377Y006860D01*
X008279Y006762D01*
X008181Y006860D01*
G37*
G36*
X008181Y005859D02*
X008279Y005957D01*
X008377Y005859D01*
X008279Y005761D01*
X008181Y005859D01*
G37*
G36*
X007277Y005859D02*
X007179Y005761D01*
X007081Y005859D01*
X007179Y005957D01*
X007277Y005859D01*
G37*
G36*
X007198Y004285D02*
X007100Y004187D01*
X007002Y004285D01*
X007100Y004383D01*
X007198Y004285D01*
G37*
G36*
X008103Y004285D02*
X008201Y004383D01*
X008299Y004285D01*
X008201Y004187D01*
X008103Y004285D01*
G37*
G36*
X008103Y003284D02*
X008201Y003382D01*
X008299Y003284D01*
X008201Y003186D01*
X008103Y003284D01*
G37*
G36*
X007198Y003284D02*
X007100Y003186D01*
X007002Y003284D01*
X007100Y003382D01*
X007198Y003284D01*
G37*
D17*
G36*
X007449Y003461D02*
X007300Y003312D01*
X007151Y003461D01*
X007300Y003610D01*
X007449Y003461D01*
G37*
G36*
X007851Y003461D02*
X008000Y003610D01*
X008149Y003461D01*
X008000Y003312D01*
X007851Y003461D01*
G37*
G36*
X007851Y004109D02*
X008000Y004258D01*
X008149Y004109D01*
X008000Y003960D01*
X007851Y004109D01*
G37*
G36*
X007449Y004109D02*
X007300Y003960D01*
X007151Y004109D01*
X007300Y004258D01*
X007449Y004109D01*
G37*
G36*
X007528Y006036D02*
X007379Y005887D01*
X007230Y006036D01*
X007379Y006185D01*
X007528Y006036D01*
G37*
G36*
X007930Y006036D02*
X008079Y006185D01*
X008228Y006036D01*
X008079Y005887D01*
X007930Y006036D01*
G37*
G36*
X007930Y006684D02*
X008079Y006833D01*
X008228Y006684D01*
X008079Y006535D01*
X007930Y006684D01*
G37*
G36*
X007528Y006684D02*
X007379Y006535D01*
X007230Y006684D01*
X007379Y006833D01*
X007528Y006684D01*
G37*
D18*
X009363Y007986D03*
X009717Y007986D03*
X009717Y008615D03*
X009363Y008615D03*
X009363Y009245D03*
X009717Y009245D03*
X003457Y006175D03*
X003103Y006175D03*
X001961Y005978D03*
X001607Y005978D03*
X001489Y004363D03*
X001135Y004363D03*
X001213Y003340D03*
X001568Y003340D03*
X008654Y003340D03*
X009009Y003340D03*
D19*
X006637Y006027D03*
X006637Y006283D03*
X006637Y006539D03*
X006637Y006795D03*
X004333Y006795D03*
X004333Y006539D03*
X004333Y006283D03*
X004333Y006027D03*
D20*
X003989Y005151D03*
X003989Y004954D03*
X003989Y004757D03*
X003989Y004560D03*
X003989Y004363D03*
X002414Y004363D03*
X002414Y004560D03*
X002414Y004757D03*
X002414Y004954D03*
X002414Y005151D03*
D21*
X002808Y005545D03*
X003005Y005545D03*
X003202Y005545D03*
X003398Y005545D03*
X003595Y005545D03*
X003595Y003970D03*
X003398Y003970D03*
X003202Y003970D03*
X003005Y003970D03*
X002808Y003970D03*
D22*
X003202Y004757D03*
D23*
X004879Y005525D03*
X005075Y005525D03*
X005270Y005525D03*
X005466Y005525D03*
X005662Y005525D03*
X005857Y005525D03*
X006053Y005525D03*
X006249Y005525D03*
X006249Y003517D03*
X006053Y003517D03*
X005857Y003517D03*
X005662Y003517D03*
X005466Y003517D03*
X005270Y003517D03*
X005075Y003517D03*
X004879Y003517D03*
D24*
X004560Y003836D03*
X004560Y004032D03*
X004560Y004227D03*
X004560Y004423D03*
X004560Y004619D03*
X004560Y004814D03*
X004560Y005010D03*
X004560Y005206D03*
X006568Y005206D03*
X006568Y005010D03*
X006568Y004814D03*
X006568Y004619D03*
X006568Y004423D03*
X006568Y004227D03*
X006568Y004032D03*
X006568Y003836D03*
D25*
X005564Y004521D03*
D26*
X009658Y003360D03*
X009914Y003360D03*
X010170Y003360D03*
X010426Y003360D03*
X010682Y003360D03*
X010938Y003360D03*
X011194Y003360D03*
X011450Y003360D03*
X011705Y003360D03*
X011705Y005840D03*
X011450Y005840D03*
X011194Y005840D03*
X010938Y005840D03*
X010682Y005840D03*
X010426Y005840D03*
X010170Y005840D03*
X009914Y005840D03*
X009658Y005840D03*
D27*
X009442Y005623D03*
X009442Y005367D03*
X009442Y005112D03*
X009442Y004856D03*
X009442Y004600D03*
X009442Y004344D03*
X009442Y004088D03*
X009442Y003832D03*
X009442Y003576D03*
X011922Y003576D03*
X011922Y003832D03*
X011922Y004088D03*
X011922Y004344D03*
X011922Y004600D03*
X011922Y004856D03*
X011922Y005112D03*
X011922Y005367D03*
X011922Y005623D03*
D28*
X011194Y005112D03*
X010682Y005112D03*
X010170Y005112D03*
X010170Y004600D03*
X010682Y004600D03*
X011194Y004600D03*
X010170Y004088D03*
D29*
X010091Y006529D03*
X011469Y006529D03*
D30*
X002717Y006334D03*
X002717Y006802D03*
X001953Y006802D03*
X001953Y006334D03*
D31*
X007180Y005442D03*
X007180Y004702D03*
X008200Y004702D03*
X008200Y005072D03*
X008200Y005442D03*
D32*
X001158Y005348D03*
X001158Y005860D03*
X001158Y004836D03*
D33*
X001473Y008115D03*
X002473Y008115D03*
X003473Y008115D03*
X004473Y008115D03*
X005473Y008115D03*
X006473Y008115D03*
X007473Y008115D03*
X008473Y008115D03*
X008473Y009115D03*
X007473Y009115D03*
X006473Y009115D03*
X005473Y009115D03*
X004473Y009115D03*
X003473Y009115D03*
X002473Y009115D03*
X001473Y009115D03*
D34*
X001961Y005978D02*
X001961Y005761D01*
X002257Y005761D01*
X001961Y005761D02*
X001961Y005486D01*
X001784Y005486D01*
X001158Y005348D02*
X001158Y004836D01*
X001135Y004363D01*
X001154Y004029D01*
X001154Y003675D02*
X001548Y003675D01*
X001568Y003340D02*
X001981Y003281D01*
X002414Y003281D01*
X001981Y003635D02*
X002020Y003989D01*
X002020Y004344D02*
X001981Y004560D01*
X001981Y004619D01*
X001784Y004816D01*
X001158Y005348D02*
X001158Y005860D01*
X001154Y003675D02*
X001213Y003340D01*
X002887Y003635D02*
X003202Y003635D01*
X003320Y003635D02*
X003674Y003635D01*
X006249Y005525D02*
X006489Y005525D01*
X006509Y005545D01*
X006824Y005741D02*
X006824Y006027D01*
X006637Y006027D01*
X006627Y006027D01*
X006637Y006539D02*
X007229Y006539D01*
X007229Y006360D01*
X007611Y006293D02*
X008178Y006293D01*
X008229Y006360D01*
X007298Y005425D02*
X007847Y004875D01*
X007847Y004521D01*
X008004Y004364D01*
X007925Y004197D01*
X007986Y004109D02*
X008000Y004109D01*
X007986Y004109D02*
X007808Y003930D01*
X007650Y003734D02*
X007650Y003300D01*
X007611Y003340D01*
X007650Y003734D02*
X007532Y003852D01*
X007532Y003970D01*
X007611Y004088D01*
X007611Y004797D01*
X007296Y005112D01*
X006981Y005112D01*
X007180Y005425D02*
X007298Y005425D01*
X007180Y005425D02*
X007180Y005442D01*
X007180Y004702D02*
X007180Y004347D01*
X007300Y004109D01*
X008694Y004974D02*
X008831Y004974D01*
X009009Y003340D02*
X009225Y003340D01*
X009265Y003300D01*
X009324Y003360D01*
X009658Y003360D01*
X009914Y003360D01*
X010356Y007848D02*
X010356Y008124D01*
X010356Y007848D02*
X010080Y007848D01*
X010080Y008124D01*
X010356Y008124D01*
X010356Y007965D02*
X010080Y007965D01*
X010080Y008082D02*
X010356Y008082D01*
X011047Y008124D02*
X011047Y007848D01*
X010771Y007848D01*
X010771Y008124D01*
X011047Y008124D01*
X011047Y007965D02*
X010771Y007965D01*
X010771Y008082D02*
X011047Y008082D01*
X011047Y008477D02*
X011047Y008753D01*
X011047Y008477D02*
X010771Y008477D01*
X010771Y008753D01*
X011047Y008753D01*
X011047Y008594D02*
X010771Y008594D01*
X010771Y008711D02*
X011047Y008711D01*
X011047Y009107D02*
X011047Y009383D01*
X011047Y009107D02*
X010771Y009107D01*
X010771Y009383D01*
X011047Y009383D01*
X011047Y009224D02*
X010771Y009224D01*
X010771Y009341D02*
X011047Y009341D01*
X010356Y009383D02*
X010356Y009107D01*
X010080Y009107D01*
X010080Y009383D01*
X010356Y009383D01*
X010356Y009224D02*
X010080Y009224D01*
X010080Y009341D02*
X010356Y009341D01*
X010356Y008753D02*
X010356Y008477D01*
X010080Y008477D01*
X010080Y008753D01*
X010356Y008753D01*
X010356Y008594D02*
X010080Y008594D01*
X010080Y008711D02*
X010356Y008711D01*
D35*
X003577Y003184D02*
X003572Y003164D01*
X003776Y003164D01*
X003771Y003184D01*
X003771Y003281D01*
X004028Y003281D01*
X004028Y003281D01*
X003771Y003281D01*
X003771Y003378D01*
X003780Y003413D01*
X003799Y003445D01*
X003825Y003471D01*
X003844Y003482D01*
X003837Y003489D01*
X003764Y003417D01*
X003583Y003417D01*
X003523Y003477D01*
X003514Y003477D01*
X003523Y003471D01*
X003549Y003445D01*
X003568Y003413D01*
X003577Y003378D01*
X003577Y003281D01*
X003320Y003281D01*
X003320Y003281D01*
X003577Y003281D01*
X003577Y003184D01*
X003771Y003184D01*
X003771Y003261D02*
X003577Y003261D01*
X003577Y003338D02*
X003771Y003338D01*
X003781Y003415D02*
X003567Y003415D01*
X003674Y003635D02*
X004028Y003635D01*
X004363Y003635D01*
X004776Y003222D01*
X005270Y003222D01*
X005270Y003517D01*
X005466Y003517D02*
X005466Y004088D01*
X005131Y004088D01*
X005075Y004088D01*
X005075Y003517D01*
X005270Y003222D02*
X005603Y003222D01*
X005662Y003280D01*
X005662Y003517D01*
X005603Y003797D02*
X005573Y003814D01*
X005537Y003824D01*
X005524Y003824D01*
X005524Y004482D01*
X004826Y004482D01*
X004826Y004517D01*
X004823Y004521D01*
X004826Y004524D01*
X004826Y004560D01*
X005524Y004560D01*
X005524Y004482D01*
X005603Y004482D01*
X005603Y004560D01*
X006301Y004560D01*
X006301Y004524D01*
X006304Y004521D01*
X006301Y004517D01*
X006301Y004482D01*
X005603Y004482D01*
X005603Y003797D01*
X005603Y003801D02*
X005595Y003801D01*
X005603Y003879D02*
X005524Y003879D01*
X005524Y003956D02*
X005603Y003956D01*
X005603Y004033D02*
X005524Y004033D01*
X005524Y004110D02*
X005603Y004110D01*
X005603Y004188D02*
X005524Y004188D01*
X005524Y004265D02*
X005603Y004265D01*
X005603Y004342D02*
X005524Y004342D01*
X005524Y004419D02*
X005603Y004419D01*
X005603Y004497D02*
X006301Y004497D01*
X005603Y004560D02*
X005524Y004560D01*
X005524Y005258D01*
X005560Y005258D01*
X005564Y005262D01*
X005567Y005258D01*
X005603Y005258D01*
X005603Y004560D01*
X005603Y004574D02*
X005524Y004574D01*
X005524Y004651D02*
X005603Y004651D01*
X005603Y004728D02*
X005524Y004728D01*
X005524Y004806D02*
X005603Y004806D01*
X005603Y004883D02*
X005524Y004883D01*
X005524Y004960D02*
X005603Y004960D01*
X005603Y005037D02*
X005524Y005037D01*
X005524Y005115D02*
X005603Y005115D01*
X005603Y005192D02*
X005524Y005192D01*
X005466Y005525D02*
X005466Y005722D01*
X005485Y005741D01*
X005485Y006765D01*
X005642Y006923D01*
X005642Y007277D01*
X005642Y007946D01*
X005473Y008115D01*
X005795Y008359D02*
X005819Y008359D01*
X005819Y008335D02*
X005639Y008515D01*
X005308Y008515D01*
X005210Y008417D01*
X005210Y008574D01*
X004854Y008931D01*
X004873Y008950D01*
X004873Y009281D01*
X004639Y009515D01*
X004308Y009515D01*
X004074Y009281D01*
X004074Y008950D01*
X004270Y008754D01*
X004031Y008754D01*
X003854Y008931D01*
X003873Y008950D01*
X003873Y009281D01*
X003639Y009515D01*
X003308Y009515D01*
X003074Y009281D01*
X003074Y008950D01*
X003308Y008716D01*
X003639Y008716D01*
X003657Y008735D01*
X003916Y008477D01*
X004213Y008477D01*
X004034Y008297D01*
X004034Y008155D01*
X004434Y008155D01*
X004434Y008076D01*
X004513Y008076D01*
X004513Y007676D01*
X004655Y007676D01*
X004775Y007796D01*
X004775Y007712D01*
X004874Y007613D01*
X004874Y007447D01*
X004855Y007428D01*
X004788Y007495D01*
X004607Y007495D01*
X004479Y007367D01*
X004479Y007186D01*
X004559Y007107D01*
X004559Y006963D01*
X004105Y006963D01*
X004066Y007002D01*
X004030Y007002D01*
X003991Y007042D01*
X003820Y007042D01*
X003851Y007060D01*
X003851Y007060D01*
X003897Y007139D01*
X003977Y007058D01*
X004158Y007058D01*
X004286Y007186D01*
X004286Y007367D01*
X004206Y007447D01*
X004206Y007761D01*
X004291Y007676D01*
X004434Y007676D01*
X004434Y008076D01*
X004034Y008076D01*
X004034Y007979D01*
X003873Y008141D01*
X003873Y008281D01*
X003639Y008515D01*
X003308Y008515D01*
X003074Y008281D01*
X003074Y007950D01*
X003093Y007931D01*
X002971Y007809D01*
X002788Y007809D01*
X002913Y007933D01*
X002913Y008076D01*
X002513Y008076D01*
X002513Y008155D01*
X002913Y008155D01*
X002913Y008297D01*
X002655Y008555D01*
X002513Y008555D01*
X002513Y008155D01*
X002434Y008155D01*
X002434Y008555D01*
X002291Y008555D01*
X002034Y008297D01*
X002034Y008155D01*
X002434Y008155D01*
X002434Y008076D01*
X002034Y008076D01*
X002034Y007933D01*
X002158Y007809D01*
X001976Y007809D01*
X001854Y007931D01*
X001873Y007950D01*
X001873Y008281D01*
X001639Y008515D01*
X001612Y008515D01*
X001612Y008716D01*
X001639Y008716D01*
X001873Y008950D01*
X001873Y009281D01*
X001639Y009515D01*
X001308Y009515D01*
X001074Y009281D01*
X001074Y008950D01*
X001308Y008716D01*
X001334Y008716D01*
X001334Y008515D01*
X001308Y008515D01*
X001074Y008281D01*
X001074Y007950D01*
X001308Y007716D01*
X001639Y007716D01*
X001657Y007735D01*
X001779Y007613D01*
X001819Y007573D01*
X000939Y007573D01*
X000939Y009658D01*
X008935Y009658D01*
X008849Y009572D01*
X008849Y009391D01*
X008977Y009263D01*
X009158Y009263D01*
X009185Y009290D01*
X009185Y009263D01*
X008913Y008991D01*
X008913Y009076D01*
X008513Y009076D01*
X008513Y009155D01*
X008913Y009155D01*
X008913Y009297D01*
X008655Y009555D01*
X008513Y009555D01*
X008513Y009155D01*
X008434Y009155D01*
X008434Y009555D01*
X008291Y009555D01*
X008034Y009297D01*
X008034Y009155D01*
X008434Y009155D01*
X008434Y009076D01*
X008034Y009076D01*
X008034Y008933D01*
X008134Y008833D01*
X007812Y008833D01*
X007913Y008933D01*
X007913Y009076D01*
X007513Y009076D01*
X007513Y009155D01*
X007913Y009155D01*
X007913Y009297D01*
X007655Y009555D01*
X007513Y009555D01*
X007513Y009155D01*
X007434Y009155D01*
X007434Y009555D01*
X007291Y009555D01*
X007034Y009297D01*
X007034Y009155D01*
X007434Y009155D01*
X007434Y009076D01*
X007034Y009076D01*
X007034Y008933D01*
X007134Y008833D01*
X006812Y008833D01*
X006913Y008933D01*
X006913Y009076D01*
X006513Y009076D01*
X006513Y009155D01*
X006913Y009155D01*
X006913Y009297D01*
X006655Y009555D01*
X006513Y009555D01*
X006513Y009155D01*
X006434Y009155D01*
X006434Y009555D01*
X006291Y009555D01*
X006034Y009297D01*
X006034Y009155D01*
X006434Y009155D01*
X006434Y009076D01*
X006034Y009076D01*
X006034Y008933D01*
X006133Y008834D01*
X006103Y008834D01*
X006027Y008758D01*
X005854Y008931D01*
X005873Y008950D01*
X005873Y009281D01*
X005639Y009515D01*
X005308Y009515D01*
X005074Y009281D01*
X005074Y008950D01*
X005308Y008716D01*
X005639Y008716D01*
X005657Y008735D01*
X005819Y008574D01*
X005819Y008335D01*
X005819Y008436D02*
X005718Y008436D01*
X005640Y008513D02*
X005819Y008513D01*
X005802Y008590D02*
X005194Y008590D01*
X005210Y008513D02*
X005306Y008513D01*
X005229Y008436D02*
X005210Y008436D01*
X005072Y008517D02*
X004473Y009115D01*
X004125Y008899D02*
X003886Y008899D01*
X003873Y008977D02*
X004074Y008977D01*
X004074Y009054D02*
X003873Y009054D01*
X003873Y009131D02*
X004074Y009131D01*
X004074Y009208D02*
X003873Y009208D01*
X003868Y009286D02*
X004078Y009286D01*
X004156Y009363D02*
X003791Y009363D01*
X003713Y009440D02*
X004233Y009440D01*
X004713Y009440D02*
X005233Y009440D01*
X005156Y009363D02*
X004791Y009363D01*
X004868Y009286D02*
X005078Y009286D01*
X005074Y009208D02*
X004873Y009208D01*
X004873Y009131D02*
X005074Y009131D01*
X005074Y009054D02*
X004873Y009054D01*
X004873Y008977D02*
X005074Y008977D01*
X005125Y008899D02*
X004886Y008899D01*
X004963Y008822D02*
X005202Y008822D01*
X005279Y008745D02*
X005040Y008745D01*
X005117Y008668D02*
X005725Y008668D01*
X005957Y008631D02*
X005473Y009115D01*
X005873Y009131D02*
X006434Y009131D01*
X006434Y009208D02*
X006513Y009208D01*
X006513Y009131D02*
X007434Y009131D01*
X007434Y009208D02*
X007513Y009208D01*
X007513Y009131D02*
X008434Y009131D01*
X008434Y009208D02*
X008513Y009208D01*
X008513Y009131D02*
X009052Y009131D01*
X008975Y009054D02*
X008913Y009054D01*
X008913Y009208D02*
X009130Y009208D01*
X009180Y009286D02*
X009185Y009286D01*
X009363Y009245D02*
X008812Y008694D01*
X006784Y008694D01*
X006705Y008615D01*
X006194Y008615D01*
X006091Y008822D02*
X005963Y008822D01*
X005886Y008899D02*
X006068Y008899D01*
X006034Y008977D02*
X005873Y008977D01*
X005873Y009054D02*
X006034Y009054D01*
X006034Y009208D02*
X005873Y009208D01*
X005868Y009286D02*
X006034Y009286D01*
X006099Y009363D02*
X005791Y009363D01*
X005713Y009440D02*
X006176Y009440D01*
X006254Y009517D02*
X002693Y009517D01*
X002655Y009555D02*
X002513Y009555D01*
X002513Y009155D01*
X002913Y009155D01*
X002913Y009297D01*
X002655Y009555D01*
X002513Y009517D02*
X002434Y009517D01*
X002434Y009555D02*
X002291Y009555D01*
X002034Y009297D01*
X002034Y009155D01*
X002434Y009155D01*
X002434Y009555D01*
X002434Y009440D02*
X002513Y009440D01*
X002513Y009363D02*
X002434Y009363D01*
X002434Y009286D02*
X002513Y009286D01*
X002513Y009208D02*
X002434Y009208D01*
X002434Y009155D02*
X002513Y009155D01*
X002513Y009076D01*
X002913Y009076D01*
X002913Y008933D01*
X002655Y008676D01*
X002513Y008676D01*
X002513Y009076D01*
X002434Y009076D01*
X002434Y008676D01*
X002291Y008676D01*
X002034Y008933D01*
X002034Y009076D01*
X002434Y009076D01*
X002434Y009155D01*
X002434Y009131D02*
X001873Y009131D01*
X001873Y009054D02*
X002034Y009054D01*
X002034Y008977D02*
X001873Y008977D01*
X001822Y008899D02*
X002068Y008899D01*
X002145Y008822D02*
X001745Y008822D01*
X001667Y008745D02*
X002222Y008745D01*
X002434Y008745D02*
X002513Y008745D01*
X002513Y008822D02*
X002434Y008822D01*
X002434Y008899D02*
X002513Y008899D01*
X002513Y008977D02*
X002434Y008977D01*
X002434Y009054D02*
X002513Y009054D01*
X002513Y009131D02*
X003074Y009131D01*
X003074Y009054D02*
X002913Y009054D01*
X002913Y008977D02*
X003074Y008977D01*
X003125Y008899D02*
X002878Y008899D01*
X002801Y008822D02*
X003202Y008822D01*
X003279Y008745D02*
X002724Y008745D01*
X002697Y008513D02*
X003306Y008513D01*
X003229Y008436D02*
X002774Y008436D01*
X002851Y008359D02*
X003152Y008359D01*
X003074Y008281D02*
X002913Y008281D01*
X002913Y008204D02*
X003074Y008204D01*
X003074Y008127D02*
X002513Y008127D01*
X002513Y008204D02*
X002434Y008204D01*
X002434Y008127D02*
X001873Y008127D01*
X001873Y008204D02*
X002034Y008204D01*
X002034Y008281D02*
X001872Y008281D01*
X001795Y008359D02*
X002095Y008359D01*
X002172Y008436D02*
X001718Y008436D01*
X001640Y008513D02*
X002249Y008513D01*
X002434Y008513D02*
X002513Y008513D01*
X002513Y008436D02*
X002434Y008436D01*
X002434Y008359D02*
X002513Y008359D01*
X002513Y008281D02*
X002434Y008281D01*
X002034Y008050D02*
X001873Y008050D01*
X001873Y007972D02*
X002034Y007972D01*
X002072Y007895D02*
X001890Y007895D01*
X001967Y007818D02*
X002149Y007818D01*
X001918Y007671D02*
X003028Y007671D01*
X003473Y008115D01*
X003702Y008115D01*
X004068Y007749D01*
X004068Y007277D01*
X004222Y007432D02*
X004544Y007432D01*
X004479Y007354D02*
X004286Y007354D01*
X004286Y007277D02*
X004479Y007277D01*
X004479Y007200D02*
X004286Y007200D01*
X004222Y007123D02*
X004543Y007123D01*
X004559Y007046D02*
X003826Y007046D01*
X003851Y007060D02*
X003851Y007060D01*
X003888Y007123D02*
X003913Y007123D01*
X004100Y006968D02*
X004559Y006968D01*
X004698Y006962D02*
X004698Y007277D01*
X004852Y007432D02*
X004859Y007432D01*
X004874Y007509D02*
X004206Y007509D01*
X004206Y007586D02*
X004874Y007586D01*
X004823Y007663D02*
X004206Y007663D01*
X004206Y007741D02*
X004227Y007741D01*
X004434Y007741D02*
X004513Y007741D01*
X004513Y007818D02*
X004434Y007818D01*
X004434Y007895D02*
X004513Y007895D01*
X004513Y007972D02*
X004434Y007972D01*
X004434Y008050D02*
X004513Y008050D01*
X004434Y008127D02*
X003886Y008127D01*
X003873Y008204D02*
X004034Y008204D01*
X004034Y008281D02*
X003872Y008281D01*
X003795Y008359D02*
X004095Y008359D01*
X004172Y008436D02*
X003718Y008436D01*
X003640Y008513D02*
X003879Y008513D01*
X003802Y008590D02*
X001612Y008590D01*
X001612Y008668D02*
X003725Y008668D01*
X003973Y008615D02*
X003473Y009115D01*
X003156Y009363D02*
X002847Y009363D01*
X002913Y009286D02*
X003078Y009286D01*
X003074Y009208D02*
X002913Y009208D01*
X002770Y009440D02*
X003233Y009440D01*
X003963Y008822D02*
X004202Y008822D01*
X003973Y008615D02*
X004698Y008615D01*
X004914Y008399D01*
X004914Y007769D01*
X005013Y007671D01*
X005013Y007277D01*
X005013Y006923D01*
X005170Y006765D01*
X005170Y005899D01*
X005075Y005803D01*
X005075Y005525D01*
X004879Y005525D02*
X004879Y005844D01*
X005013Y005978D01*
X005013Y006647D01*
X004698Y006962D01*
X004333Y006795D02*
X004078Y006795D01*
X004009Y006863D01*
X003831Y006863D01*
X003438Y006863D01*
X003044Y006863D01*
X002721Y006799D02*
X002721Y006589D01*
X002713Y006589D01*
X002713Y006799D01*
X002491Y006799D01*
X002491Y006629D01*
X002501Y006593D01*
X002519Y006561D01*
X002541Y006540D01*
X002531Y006531D01*
X002531Y006137D01*
X002556Y006113D01*
X002515Y006073D01*
X002139Y006449D01*
X002139Y006531D01*
X002130Y006540D01*
X002152Y006561D01*
X002170Y006593D01*
X002179Y006629D01*
X002179Y006799D01*
X001957Y006799D01*
X001957Y006806D01*
X002179Y006806D01*
X002179Y006976D01*
X002178Y006981D01*
X002492Y006981D01*
X002491Y006976D01*
X002491Y006806D01*
X002713Y006806D01*
X002713Y006799D01*
X002721Y006799D01*
X002717Y006802D02*
X002717Y006777D01*
X002985Y006509D01*
X003044Y006509D01*
X002903Y006509D01*
X002903Y006509D01*
X003044Y006509D01*
X003044Y006509D01*
X003044Y006509D01*
X003438Y006509D01*
X003438Y006509D01*
X003180Y006509D01*
X003044Y006509D01*
X003103Y006450D01*
X003103Y006175D01*
X003103Y006174D02*
X003103Y006174D01*
X003103Y005917D01*
X003006Y005917D01*
X002971Y005927D01*
X002947Y005940D01*
X002947Y005887D01*
X003180Y005887D01*
X003180Y005917D02*
X003180Y005822D01*
X003134Y005822D01*
X003099Y005812D01*
X003067Y005794D01*
X003055Y005782D01*
X002914Y005782D01*
X002906Y005774D01*
X002898Y005782D01*
X002842Y005782D01*
X002947Y005887D01*
X002870Y005810D02*
X003094Y005810D01*
X003103Y005917D02*
X003180Y005917D01*
X003103Y005917D02*
X003103Y006174D01*
X003103Y006119D02*
X003103Y006119D01*
X003103Y006041D02*
X003103Y006041D01*
X003103Y005964D02*
X003103Y005964D01*
X003398Y005860D02*
X003398Y005545D01*
X003595Y005545D02*
X003831Y005545D01*
X003950Y005781D02*
X004619Y005781D01*
X004707Y006027D02*
X004776Y006096D01*
X004707Y006027D02*
X004333Y006027D01*
X004333Y006283D02*
X004333Y006539D01*
X004747Y006539D01*
X004776Y006568D01*
X004333Y006539D02*
X003831Y006539D01*
X003831Y006509D01*
X003831Y006234D01*
X003831Y005879D02*
X003753Y005879D01*
X003457Y006175D01*
X003831Y005879D02*
X003851Y005879D01*
X003950Y005781D01*
X004186Y005387D02*
X004406Y005206D01*
X004560Y005206D01*
X004560Y005010D02*
X004366Y005010D01*
X004186Y005151D01*
X003989Y005151D01*
X003989Y004954D02*
X004186Y004954D01*
X004365Y004814D01*
X004560Y004814D01*
X004560Y004619D02*
X004364Y004619D01*
X004186Y004757D01*
X003989Y004757D01*
X003989Y004560D02*
X004186Y004560D01*
X004362Y004423D01*
X004560Y004423D01*
X004560Y004227D02*
X004361Y004227D01*
X004186Y004363D01*
X003989Y004363D01*
X003849Y004215D02*
X004151Y004215D01*
X004269Y004123D01*
X004293Y004099D01*
X004293Y003975D01*
X003905Y003975D01*
X003771Y004109D01*
X003744Y004109D01*
X003767Y004116D01*
X003799Y004134D01*
X003825Y004160D01*
X003843Y004192D01*
X003849Y004215D01*
X003841Y004188D02*
X004186Y004188D01*
X004282Y004110D02*
X003748Y004110D01*
X003744Y004109D02*
X003744Y004109D01*
X003846Y004033D02*
X004293Y004033D01*
X004560Y003836D02*
X003847Y003836D01*
X003713Y003970D01*
X003595Y003970D01*
X003202Y003970D02*
X003202Y003635D01*
X003320Y003635D01*
X002887Y003635D02*
X002808Y003635D01*
X002808Y003970D01*
X002659Y003956D02*
X002238Y003956D01*
X002238Y004033D02*
X002659Y004033D01*
X002659Y004109D02*
X002659Y003791D01*
X002669Y003781D01*
X002669Y003742D01*
X002662Y003768D01*
X002644Y003799D01*
X002618Y003825D01*
X002586Y003844D01*
X002551Y003853D01*
X002414Y003853D01*
X002278Y003853D01*
X002242Y003844D01*
X002210Y003825D01*
X002184Y003799D01*
X002173Y003780D01*
X002158Y003795D01*
X002160Y003811D01*
X002180Y003811D01*
X002238Y003870D01*
X002238Y004109D01*
X002181Y004167D01*
X002232Y004218D01*
X002235Y004215D01*
X002554Y004215D01*
X002560Y004192D01*
X002578Y004160D01*
X002604Y004134D01*
X002636Y004116D01*
X002659Y004109D01*
X002655Y004110D02*
X002237Y004110D01*
X002202Y004188D02*
X002562Y004188D01*
X002659Y003879D02*
X002238Y003879D01*
X002186Y003801D02*
X002159Y003801D01*
X002414Y003801D02*
X002414Y003801D01*
X002414Y003853D02*
X002414Y003635D01*
X002414Y003635D01*
X002414Y003853D01*
X002414Y003724D02*
X002414Y003724D01*
X002414Y003647D02*
X002414Y003647D01*
X002642Y003801D02*
X002659Y003801D01*
X002887Y003281D02*
X003320Y003281D01*
X003320Y003281D01*
X003062Y003281D01*
X002887Y003281D01*
X002887Y003281D01*
X004028Y003281D02*
X004286Y003281D01*
X004286Y003378D01*
X004276Y003413D01*
X004258Y003445D01*
X004232Y003471D01*
X004213Y003482D01*
X004227Y003496D01*
X004305Y003496D01*
X004638Y003164D01*
X004280Y003164D01*
X004286Y003184D01*
X004286Y003281D01*
X004028Y003281D01*
X004028Y003281D01*
X004286Y003261D02*
X004541Y003261D01*
X004464Y003338D02*
X004286Y003338D01*
X004275Y003415D02*
X004387Y003415D01*
X004309Y003492D02*
X004223Y003492D01*
X004286Y003184D02*
X004618Y003184D01*
X004826Y004497D02*
X005524Y004497D01*
X006568Y003836D02*
X006788Y003615D01*
X006784Y003615D01*
X006528Y003517D02*
X006745Y003300D01*
X006784Y003300D01*
X006528Y003517D02*
X006249Y003517D01*
X007100Y003284D02*
X007275Y003235D01*
X007375Y003372D01*
X007300Y003461D01*
X007150Y003785D01*
X007300Y004109D01*
X007375Y004197D01*
X007275Y004335D01*
X007100Y004285D01*
X007925Y004197D02*
X008000Y004109D01*
X008150Y003785D01*
X008000Y003461D01*
X007925Y003372D01*
X008025Y003235D01*
X008201Y003284D01*
X008320Y003164D02*
X008400Y003243D01*
X008400Y003326D01*
X008400Y004232D01*
X008412Y004244D01*
X008476Y004244D01*
X008534Y004185D01*
X008872Y004185D01*
X008928Y004130D01*
X008928Y004030D01*
X008861Y004030D01*
X008861Y003783D01*
X008802Y003783D01*
X008802Y004030D01*
X008557Y004030D01*
X008522Y004021D01*
X008490Y004003D01*
X008464Y003977D01*
X008446Y003945D01*
X008436Y003909D01*
X008436Y003783D01*
X008802Y003783D01*
X008802Y003724D01*
X008400Y003724D01*
X008436Y003724D02*
X008436Y003597D01*
X008446Y003562D01*
X008460Y003537D01*
X008446Y003512D01*
X008436Y003476D01*
X008436Y003340D01*
X008654Y003340D01*
X008654Y003340D01*
X008436Y003340D01*
X008436Y003203D01*
X008446Y003168D01*
X008448Y003164D01*
X008320Y003164D01*
X008340Y003184D02*
X008441Y003184D01*
X008436Y003261D02*
X008400Y003261D01*
X008400Y003326D02*
X008400Y003326D01*
X008400Y003338D02*
X008436Y003338D01*
X008436Y003415D02*
X008400Y003415D01*
X008400Y003492D02*
X008440Y003492D01*
X008444Y003570D02*
X008400Y003570D01*
X008400Y003647D02*
X008436Y003647D01*
X008436Y003724D02*
X008802Y003724D01*
X008831Y003753D02*
X009009Y003753D01*
X009186Y003576D01*
X009442Y003576D01*
X009224Y003576D01*
X009224Y003519D01*
X009188Y003519D01*
X009199Y003530D01*
X009217Y003562D01*
X009224Y003585D01*
X009224Y003576D01*
X009442Y003576D01*
X009442Y003576D01*
X009224Y003570D02*
X009219Y003570D01*
X009227Y003665D02*
X009227Y003724D01*
X008861Y003724D01*
X009255Y003724D01*
X009251Y003721D02*
X009264Y003733D01*
X009264Y003896D01*
X009237Y003869D01*
X009227Y003869D01*
X009227Y003783D01*
X008861Y003783D01*
X008861Y003724D01*
X008861Y003801D02*
X008802Y003801D01*
X008802Y003879D02*
X008861Y003879D01*
X008861Y003956D02*
X008802Y003956D01*
X008928Y004033D02*
X008400Y004033D01*
X008400Y003956D02*
X008452Y003956D01*
X008436Y003879D02*
X008400Y003879D01*
X008400Y003801D02*
X008436Y003801D01*
X008400Y004110D02*
X008928Y004110D01*
X009146Y004108D02*
X009146Y004088D01*
X009146Y004108D02*
X008831Y004423D01*
X009127Y004423D01*
X009225Y004521D01*
X009225Y005820D01*
X009304Y005899D01*
X009182Y006086D02*
X008861Y006086D01*
X008861Y006145D01*
X009227Y006145D01*
X009227Y006272D01*
X009217Y006307D01*
X009199Y006339D01*
X009173Y006365D01*
X009141Y006383D01*
X009106Y006393D01*
X008861Y006393D01*
X008861Y006145D01*
X008802Y006145D01*
X008802Y006393D01*
X008557Y006393D01*
X008522Y006383D01*
X008490Y006365D01*
X008478Y006353D01*
X008478Y006604D01*
X008534Y006548D01*
X009129Y006548D01*
X009187Y006606D01*
X009187Y006607D01*
X009362Y006607D01*
X009362Y006117D01*
X009213Y006117D01*
X009182Y006086D01*
X009227Y006196D02*
X009362Y006196D01*
X009362Y006273D02*
X009226Y006273D01*
X009187Y006350D02*
X009362Y006350D01*
X009362Y006428D02*
X008478Y006428D01*
X008478Y006505D02*
X009362Y006505D01*
X009362Y006582D02*
X009163Y006582D01*
X008861Y006350D02*
X008802Y006350D01*
X008802Y006273D02*
X008861Y006273D01*
X008861Y006196D02*
X008802Y006196D01*
X008861Y006119D02*
X009362Y006119D01*
X009658Y005840D02*
X009658Y005840D01*
X009658Y005622D01*
X009620Y005622D01*
X009620Y005523D01*
X009592Y005495D01*
X009620Y005468D01*
X009620Y005267D01*
X009592Y005239D01*
X009620Y005212D01*
X009620Y005011D01*
X009592Y004984D01*
X009620Y004956D01*
X009620Y004755D01*
X009592Y004728D01*
X009620Y004700D01*
X009620Y004543D01*
X009788Y004543D01*
X009916Y004415D01*
X009916Y004234D01*
X009849Y004167D01*
X009916Y004100D01*
X009916Y003919D01*
X009849Y003852D01*
X009868Y003833D01*
X009991Y003833D01*
X010227Y003597D01*
X010306Y003518D01*
X010326Y003538D01*
X010526Y003538D01*
X010554Y003510D01*
X010582Y003538D01*
X010782Y003538D01*
X010810Y003510D01*
X010838Y003538D01*
X011038Y003538D01*
X011066Y003510D01*
X011093Y003538D01*
X011294Y003538D01*
X011322Y003510D01*
X011349Y003538D01*
X011550Y003538D01*
X011577Y003510D01*
X011605Y003538D01*
X011744Y003538D01*
X011744Y003676D01*
X011772Y003704D01*
X011744Y003732D01*
X011744Y003932D01*
X011772Y003960D01*
X011744Y003988D01*
X011744Y004188D01*
X011772Y004216D01*
X011744Y004244D01*
X011744Y004444D01*
X011772Y004472D01*
X011744Y004499D01*
X011744Y004700D01*
X011772Y004728D01*
X011744Y004755D01*
X011744Y004956D01*
X011772Y004984D01*
X011744Y005011D01*
X011744Y005212D01*
X011772Y005239D01*
X011744Y005267D01*
X011744Y005468D01*
X011772Y005495D01*
X011744Y005523D01*
X011744Y005662D01*
X011606Y005662D01*
X011594Y005650D01*
X011562Y005631D01*
X011527Y005622D01*
X011450Y005622D01*
X011450Y005840D01*
X011450Y005840D01*
X011450Y005622D01*
X011372Y005622D01*
X011337Y005631D01*
X011305Y005650D01*
X011293Y005662D01*
X011093Y005662D01*
X011066Y005689D01*
X011038Y005662D01*
X010838Y005662D01*
X010810Y005689D01*
X010782Y005662D01*
X010582Y005662D01*
X010554Y005689D01*
X010526Y005662D01*
X010327Y005662D01*
X010315Y005650D01*
X010283Y005631D01*
X010247Y005622D01*
X010170Y005622D01*
X010170Y005840D01*
X010170Y005840D01*
X010170Y005622D01*
X010093Y005622D01*
X010057Y005631D01*
X010025Y005650D01*
X010013Y005662D01*
X009815Y005662D01*
X009803Y005650D01*
X009771Y005631D01*
X009736Y005622D01*
X009658Y005622D01*
X009658Y005840D01*
X009658Y005810D02*
X009658Y005810D01*
X009658Y005732D02*
X009658Y005732D01*
X009658Y005655D02*
X009658Y005655D01*
X009620Y005578D02*
X011744Y005578D01*
X011744Y005655D02*
X011600Y005655D01*
X011450Y005655D02*
X011450Y005655D01*
X011450Y005732D02*
X011450Y005732D01*
X011450Y005810D02*
X011450Y005810D01*
X011299Y005655D02*
X010320Y005655D01*
X010170Y005655D02*
X010170Y005655D01*
X010170Y005732D02*
X010170Y005732D01*
X010170Y005810D02*
X010170Y005810D01*
X010020Y005655D02*
X009808Y005655D01*
X009597Y005501D02*
X011766Y005501D01*
X011744Y005423D02*
X009620Y005423D01*
X009620Y005346D02*
X010042Y005346D01*
X010053Y005349D02*
X010018Y005340D01*
X009986Y005321D01*
X009960Y005296D01*
X009942Y005264D01*
X009932Y005228D01*
X009932Y005121D01*
X010160Y005121D01*
X010160Y005102D01*
X009932Y005102D01*
X009932Y004995D01*
X009942Y004959D01*
X009960Y004928D01*
X009986Y004902D01*
X010018Y004883D01*
X010053Y004874D01*
X010160Y004874D01*
X010160Y005102D01*
X010180Y005102D01*
X010180Y005121D01*
X010408Y005121D01*
X010408Y005228D01*
X010398Y005264D01*
X010380Y005296D01*
X010354Y005321D01*
X010322Y005340D01*
X010287Y005349D01*
X010180Y005349D01*
X010180Y005121D01*
X010160Y005121D01*
X010160Y005349D01*
X010053Y005349D01*
X010160Y005346D02*
X010180Y005346D01*
X010180Y005269D02*
X010160Y005269D01*
X010160Y005192D02*
X010180Y005192D01*
X010180Y005115D02*
X010672Y005115D01*
X010672Y005121D02*
X010672Y005102D01*
X010444Y005102D01*
X010444Y004995D01*
X010454Y004959D01*
X010472Y004928D01*
X010498Y004902D01*
X010530Y004883D01*
X010565Y004874D01*
X010672Y004874D01*
X010672Y005102D01*
X010692Y005102D01*
X010692Y005121D01*
X010920Y005121D01*
X010920Y005228D01*
X010910Y005264D01*
X010892Y005296D01*
X010866Y005321D01*
X010834Y005340D01*
X010799Y005349D01*
X010692Y005349D01*
X010692Y005121D01*
X010672Y005121D01*
X010444Y005121D01*
X010444Y005228D01*
X010454Y005264D01*
X010472Y005296D01*
X010498Y005321D01*
X010530Y005340D01*
X010565Y005349D01*
X010672Y005349D01*
X010672Y005121D01*
X010692Y005115D02*
X011184Y005115D01*
X011184Y005121D02*
X011184Y005102D01*
X010956Y005102D01*
X010956Y004995D01*
X010965Y004959D01*
X010984Y004928D01*
X011010Y004902D01*
X011041Y004883D01*
X011077Y004874D01*
X011184Y004874D01*
X011184Y005102D01*
X011203Y005102D01*
X011203Y004874D01*
X011310Y004874D01*
X011346Y004883D01*
X011378Y004902D01*
X011404Y004928D01*
X011422Y004959D01*
X011431Y004995D01*
X011431Y005102D01*
X011203Y005102D01*
X011203Y005121D01*
X011184Y005121D01*
X010956Y005121D01*
X010956Y005228D01*
X010965Y005264D01*
X010984Y005296D01*
X011010Y005321D01*
X011041Y005340D01*
X011077Y005349D01*
X011184Y005349D01*
X011184Y005121D01*
X011203Y005121D02*
X011203Y005349D01*
X011310Y005349D01*
X011346Y005340D01*
X011378Y005321D01*
X011404Y005296D01*
X011422Y005264D01*
X011431Y005228D01*
X011431Y005121D01*
X011203Y005121D01*
X011203Y005115D02*
X011744Y005115D01*
X011744Y005192D02*
X011431Y005192D01*
X011419Y005269D02*
X011744Y005269D01*
X011744Y005346D02*
X011322Y005346D01*
X011203Y005346D02*
X011184Y005346D01*
X011184Y005269D02*
X011203Y005269D01*
X011203Y005192D02*
X011184Y005192D01*
X011184Y005037D02*
X011203Y005037D01*
X011203Y004960D02*
X011184Y004960D01*
X011184Y004883D02*
X011203Y004883D01*
X011203Y004838D02*
X011203Y004610D01*
X011184Y004610D01*
X011184Y004838D01*
X011077Y004838D01*
X011041Y004828D01*
X011010Y004810D01*
X010984Y004784D01*
X010965Y004752D01*
X010956Y004716D01*
X010956Y004610D01*
X011184Y004610D01*
X011184Y004590D01*
X011203Y004590D01*
X011203Y004362D01*
X011310Y004362D01*
X011346Y004371D01*
X011378Y004390D01*
X011404Y004416D01*
X011422Y004447D01*
X011431Y004483D01*
X011431Y004590D01*
X011203Y004590D01*
X011203Y004610D01*
X011431Y004610D01*
X011431Y004716D01*
X011422Y004752D01*
X011404Y004784D01*
X011378Y004810D01*
X011346Y004828D01*
X011310Y004838D01*
X011203Y004838D01*
X011203Y004806D02*
X011184Y004806D01*
X011184Y004728D02*
X011203Y004728D01*
X011203Y004651D02*
X011184Y004651D01*
X011184Y004590D02*
X010956Y004590D01*
X010956Y004483D01*
X010965Y004447D01*
X010984Y004416D01*
X011010Y004390D01*
X011041Y004371D01*
X011077Y004362D01*
X011184Y004362D01*
X011184Y004590D01*
X011184Y004574D02*
X011203Y004574D01*
X011203Y004497D02*
X011184Y004497D01*
X011184Y004419D02*
X011203Y004419D01*
X011406Y004419D02*
X011744Y004419D01*
X011744Y004342D02*
X009916Y004342D01*
X009916Y004265D02*
X009956Y004265D01*
X009960Y004272D02*
X009942Y004240D01*
X009932Y004205D01*
X009932Y004098D01*
X010160Y004098D01*
X010160Y004326D01*
X010053Y004326D01*
X010018Y004316D01*
X009986Y004298D01*
X009960Y004272D01*
X009932Y004188D02*
X009870Y004188D01*
X009905Y004110D02*
X009932Y004110D01*
X009932Y004078D02*
X009932Y003971D01*
X009942Y003936D01*
X009960Y003904D01*
X009986Y003878D01*
X010018Y003860D01*
X010053Y003850D01*
X010160Y003850D01*
X010160Y004078D01*
X009932Y004078D01*
X009932Y004033D02*
X009916Y004033D01*
X009916Y003956D02*
X009936Y003956D01*
X009985Y003879D02*
X009876Y003879D01*
X010023Y003801D02*
X011744Y003801D01*
X011751Y003724D02*
X010100Y003724D01*
X010177Y003647D02*
X011744Y003647D01*
X011744Y003570D02*
X010254Y003570D01*
X010170Y003458D02*
X010170Y003360D01*
X010170Y003458D02*
X009934Y003694D01*
X009698Y003694D01*
X009698Y004009D02*
X009619Y004088D01*
X009442Y004088D01*
X009442Y004344D02*
X009678Y004344D01*
X009698Y004324D01*
X009834Y004497D02*
X009932Y004497D01*
X009932Y004483D02*
X009942Y004447D01*
X009960Y004416D01*
X009986Y004390D01*
X010018Y004371D01*
X010053Y004362D01*
X010160Y004362D01*
X010160Y004590D01*
X009932Y004590D01*
X009932Y004483D01*
X009911Y004419D02*
X009958Y004419D01*
X010160Y004419D02*
X010180Y004419D01*
X010180Y004362D02*
X010287Y004362D01*
X010322Y004371D01*
X010354Y004390D01*
X010380Y004416D01*
X010398Y004447D01*
X010408Y004483D01*
X010408Y004590D01*
X010180Y004590D01*
X010180Y004610D01*
X010160Y004610D01*
X010160Y004838D01*
X010053Y004838D01*
X010018Y004828D01*
X009986Y004810D01*
X009960Y004784D01*
X009942Y004752D01*
X009932Y004716D01*
X009932Y004610D01*
X010160Y004610D01*
X010160Y004590D01*
X010180Y004590D01*
X010180Y004362D01*
X010180Y004326D02*
X010180Y004098D01*
X010160Y004098D01*
X010160Y004078D01*
X010180Y004078D01*
X010180Y004098D01*
X010408Y004098D01*
X010408Y004205D01*
X010398Y004240D01*
X010380Y004272D01*
X010354Y004298D01*
X010322Y004316D01*
X010287Y004326D01*
X010180Y004326D01*
X010180Y004265D02*
X010160Y004265D01*
X010160Y004188D02*
X010180Y004188D01*
X010180Y004110D02*
X010160Y004110D01*
X010180Y004078D02*
X010408Y004078D01*
X010408Y003971D01*
X010398Y003936D01*
X010380Y003904D01*
X010354Y003878D01*
X010322Y003860D01*
X010287Y003850D01*
X010180Y003850D01*
X010180Y004078D01*
X010180Y004033D02*
X010160Y004033D01*
X010160Y003956D02*
X010180Y003956D01*
X010180Y003879D02*
X010160Y003879D01*
X010355Y003879D02*
X011744Y003879D01*
X011768Y003956D02*
X010404Y003956D01*
X010408Y004033D02*
X011744Y004033D01*
X011744Y004110D02*
X010408Y004110D01*
X010408Y004188D02*
X011744Y004188D01*
X011744Y004265D02*
X010384Y004265D01*
X010382Y004419D02*
X010470Y004419D01*
X010472Y004416D02*
X010498Y004390D01*
X010530Y004371D01*
X010565Y004362D01*
X010672Y004362D01*
X010672Y004590D01*
X010444Y004590D01*
X010444Y004483D01*
X010454Y004447D01*
X010472Y004416D01*
X010444Y004497D02*
X010408Y004497D01*
X010408Y004574D02*
X010444Y004574D01*
X010444Y004610D02*
X010672Y004610D01*
X010672Y004838D01*
X010565Y004838D01*
X010530Y004828D01*
X010498Y004810D01*
X010472Y004784D01*
X010454Y004752D01*
X010444Y004716D01*
X010444Y004610D01*
X010408Y004610D02*
X010408Y004716D01*
X010398Y004752D01*
X010380Y004784D01*
X010354Y004810D01*
X010322Y004828D01*
X010287Y004838D01*
X010180Y004838D01*
X010180Y004610D01*
X010408Y004610D01*
X010408Y004651D02*
X010444Y004651D01*
X010447Y004728D02*
X010405Y004728D01*
X010358Y004806D02*
X010494Y004806D01*
X010531Y004883D02*
X010321Y004883D01*
X010322Y004883D02*
X010354Y004902D01*
X010380Y004928D01*
X010398Y004959D01*
X010408Y004995D01*
X010408Y005102D01*
X010180Y005102D01*
X010180Y004874D01*
X010287Y004874D01*
X010322Y004883D01*
X010399Y004960D02*
X010453Y004960D01*
X010444Y005037D02*
X010408Y005037D01*
X010408Y005192D02*
X010444Y005192D01*
X010457Y005269D02*
X010395Y005269D01*
X010298Y005346D02*
X010554Y005346D01*
X010672Y005346D02*
X010692Y005346D01*
X010692Y005269D02*
X010672Y005269D01*
X010672Y005192D02*
X010692Y005192D01*
X010692Y005102D02*
X010920Y005102D01*
X010920Y004995D01*
X010910Y004959D01*
X010892Y004928D01*
X010866Y004902D01*
X010834Y004883D01*
X010799Y004874D01*
X010692Y004874D01*
X010692Y005102D01*
X010692Y005037D02*
X010672Y005037D01*
X010672Y004960D02*
X010692Y004960D01*
X010692Y004883D02*
X010672Y004883D01*
X010692Y004838D02*
X010692Y004610D01*
X010672Y004610D01*
X010672Y004590D01*
X010692Y004590D01*
X010692Y004610D01*
X010920Y004610D01*
X010920Y004716D01*
X010910Y004752D01*
X010892Y004784D01*
X010866Y004810D01*
X010834Y004828D01*
X010799Y004838D01*
X010692Y004838D01*
X010692Y004806D02*
X010672Y004806D01*
X010672Y004728D02*
X010692Y004728D01*
X010692Y004651D02*
X010672Y004651D01*
X010692Y004590D02*
X010920Y004590D01*
X010920Y004483D01*
X010910Y004447D01*
X010892Y004416D01*
X010866Y004390D01*
X010834Y004371D01*
X010799Y004362D01*
X010692Y004362D01*
X010692Y004590D01*
X010692Y004574D02*
X010672Y004574D01*
X010672Y004497D02*
X010692Y004497D01*
X010692Y004419D02*
X010672Y004419D01*
X010894Y004419D02*
X010982Y004419D01*
X010956Y004497D02*
X010920Y004497D01*
X010920Y004574D02*
X010956Y004574D01*
X010956Y004651D02*
X010920Y004651D01*
X010916Y004728D02*
X010959Y004728D01*
X011006Y004806D02*
X010870Y004806D01*
X010832Y004883D02*
X011043Y004883D01*
X010965Y004960D02*
X010910Y004960D01*
X010920Y005037D02*
X010956Y005037D01*
X010956Y005192D02*
X010920Y005192D01*
X010907Y005269D02*
X010968Y005269D01*
X011065Y005346D02*
X010810Y005346D01*
X010160Y005115D02*
X009620Y005115D01*
X009620Y005192D02*
X009932Y005192D01*
X009945Y005269D02*
X009620Y005269D01*
X009620Y005037D02*
X009932Y005037D01*
X009942Y004960D02*
X009616Y004960D01*
X009620Y004883D02*
X010019Y004883D01*
X009982Y004806D02*
X009620Y004806D01*
X009593Y004728D02*
X009935Y004728D01*
X009932Y004651D02*
X009620Y004651D01*
X009620Y004574D02*
X009932Y004574D01*
X010160Y004574D02*
X010180Y004574D01*
X010180Y004651D02*
X010160Y004651D01*
X010160Y004728D02*
X010180Y004728D01*
X010180Y004806D02*
X010160Y004806D01*
X010160Y004883D02*
X010180Y004883D01*
X010180Y004960D02*
X010160Y004960D01*
X010160Y005037D02*
X010180Y005037D01*
X010160Y004497D02*
X010180Y004497D01*
X009264Y003879D02*
X009246Y003879D01*
X009227Y003801D02*
X009264Y003801D01*
X009251Y003721D02*
X009233Y003689D01*
X009227Y003665D01*
X008532Y004188D02*
X008400Y004188D01*
X008476Y004244D02*
X008476Y004244D01*
X008201Y004285D02*
X008025Y004335D01*
X007925Y004197D01*
X007890Y005057D02*
X007479Y005467D01*
X007479Y005593D01*
X007421Y005652D01*
X007042Y005652D01*
X007042Y005756D01*
X007138Y005660D01*
X007220Y005660D01*
X007220Y005660D01*
X007558Y005660D01*
X007850Y005368D01*
X007900Y005318D01*
X007900Y005291D01*
X007906Y005285D01*
X007888Y005268D01*
X007870Y005236D01*
X007860Y005200D01*
X007860Y005088D01*
X008184Y005088D01*
X008184Y005057D01*
X007890Y005057D01*
X007860Y005115D02*
X007832Y005115D01*
X007860Y005192D02*
X007755Y005192D01*
X007678Y005269D02*
X007889Y005269D01*
X007872Y005346D02*
X007600Y005346D01*
X007523Y005423D02*
X007795Y005423D01*
X007718Y005501D02*
X007479Y005501D01*
X007479Y005578D02*
X007641Y005578D01*
X007563Y005655D02*
X007042Y005655D01*
X007042Y005732D02*
X007065Y005732D01*
X007179Y005859D02*
X007354Y005810D01*
X007454Y005947D01*
X007379Y006036D01*
X007229Y006360D01*
X007229Y006539D02*
X007379Y006684D01*
X007454Y006772D01*
X007354Y006910D01*
X007179Y006860D01*
X006637Y006795D02*
X006302Y006795D01*
X006194Y006686D01*
X006194Y006529D01*
X006261Y006310D02*
X006103Y006310D01*
X006096Y006317D01*
X006096Y006235D01*
X006015Y006154D01*
X005996Y006135D01*
X005996Y005792D01*
X006147Y005792D01*
X006151Y005788D01*
X006154Y005792D01*
X006343Y005792D01*
X006395Y005740D01*
X006418Y005763D01*
X006599Y005763D01*
X006605Y005757D01*
X006605Y005832D01*
X006632Y005859D01*
X006359Y005859D01*
X006301Y005917D01*
X006301Y006116D01*
X006289Y006128D01*
X006270Y006160D01*
X006261Y006196D01*
X006057Y006196D01*
X006096Y006273D02*
X006261Y006273D01*
X006261Y006283D02*
X006261Y006196D01*
X006298Y006119D02*
X005996Y006119D01*
X005996Y006041D02*
X006301Y006041D01*
X006301Y005964D02*
X005996Y005964D01*
X005996Y005887D02*
X006331Y005887D01*
X006605Y005810D02*
X005996Y005810D01*
X005857Y005525D02*
X005857Y006192D01*
X005957Y006293D01*
X005957Y007277D01*
X005957Y008631D01*
X006473Y008115D02*
X006894Y008537D01*
X008910Y008537D01*
X008989Y008615D01*
X009363Y008615D01*
X009540Y008776D02*
X009483Y008833D01*
X009243Y008833D01*
X009185Y008775D01*
X009185Y008754D01*
X009068Y008754D01*
X009342Y009028D01*
X009483Y009028D01*
X009540Y009085D01*
X009597Y009028D01*
X009837Y009028D01*
X009895Y009086D01*
X009895Y009107D01*
X009922Y009107D01*
X009922Y009042D01*
X010015Y008949D01*
X010422Y008949D01*
X010515Y009042D01*
X010515Y009422D01*
X010613Y009422D01*
X010613Y009042D01*
X010706Y008949D01*
X010770Y008949D01*
X010770Y008912D01*
X010706Y008912D01*
X010613Y008819D01*
X010613Y008412D01*
X010706Y008319D01*
X010770Y008319D01*
X010770Y008282D01*
X010706Y008282D01*
X010613Y008189D01*
X010613Y007782D01*
X010706Y007689D01*
X011112Y007689D01*
X011205Y007782D01*
X011205Y008189D01*
X011112Y008282D01*
X011048Y008282D01*
X011048Y008319D01*
X011112Y008319D01*
X011205Y008412D01*
X011205Y008819D01*
X011112Y008912D01*
X011048Y008912D01*
X011048Y008949D01*
X011112Y008949D01*
X011205Y009042D01*
X011205Y009449D01*
X011112Y009542D01*
X011048Y009542D01*
X011048Y009548D01*
X010978Y009618D01*
X010938Y009658D01*
X012118Y009658D01*
X012118Y007573D01*
X006311Y007573D01*
X006174Y007494D01*
X006174Y007494D01*
X006174Y007494D01*
X006128Y007415D01*
X006096Y007447D01*
X006096Y007928D01*
X006308Y007716D01*
X006639Y007716D01*
X006873Y007950D01*
X006873Y008281D01*
X006854Y008300D01*
X006952Y008398D01*
X007134Y008398D01*
X007034Y008297D01*
X007034Y008155D01*
X007434Y008155D01*
X007434Y008076D01*
X007513Y008076D01*
X007513Y008155D01*
X007913Y008155D01*
X007913Y008297D01*
X007812Y008398D01*
X008134Y008398D01*
X008034Y008297D01*
X008034Y008155D01*
X008434Y008155D01*
X008434Y008076D01*
X008513Y008076D01*
X008513Y008155D01*
X008913Y008155D01*
X008913Y008297D01*
X008812Y008398D01*
X008968Y008398D01*
X009046Y008477D01*
X009185Y008477D01*
X009185Y008456D01*
X009243Y008398D01*
X009483Y008398D01*
X009540Y008455D01*
X009597Y008398D01*
X009837Y008398D01*
X009895Y008456D01*
X009895Y008477D01*
X009922Y008477D01*
X009922Y008412D01*
X010015Y008319D01*
X010422Y008319D01*
X010515Y008412D01*
X010515Y008819D01*
X010422Y008912D01*
X010015Y008912D01*
X009922Y008819D01*
X009922Y008754D01*
X009895Y008754D01*
X009895Y008775D01*
X009837Y008833D01*
X009597Y008833D01*
X009540Y008776D01*
X009494Y008822D02*
X009586Y008822D01*
X009717Y008615D02*
X010218Y008615D01*
X010515Y008590D02*
X010613Y008590D01*
X010613Y008513D02*
X010515Y008513D01*
X010515Y008436D02*
X010613Y008436D01*
X010666Y008359D02*
X010461Y008359D01*
X010422Y008282D02*
X010015Y008282D01*
X009922Y008189D01*
X009922Y008124D01*
X009895Y008124D01*
X009895Y008145D01*
X009837Y008203D01*
X009597Y008203D01*
X009564Y008170D01*
X009553Y008189D01*
X009527Y008215D01*
X009495Y008234D01*
X009460Y008243D01*
X009363Y008243D01*
X009363Y007986D01*
X009363Y007986D01*
X009363Y008243D01*
X009266Y008243D01*
X009230Y008234D01*
X009199Y008215D01*
X009173Y008189D01*
X009154Y008157D01*
X009145Y008122D01*
X009145Y007986D01*
X009363Y007986D01*
X009363Y007986D01*
X009145Y007986D01*
X009145Y007849D01*
X009154Y007814D01*
X009173Y007782D01*
X009199Y007756D01*
X009230Y007738D01*
X009266Y007728D01*
X009363Y007728D01*
X009460Y007728D01*
X009495Y007738D01*
X009527Y007756D01*
X009553Y007782D01*
X009564Y007801D01*
X009597Y007768D01*
X009837Y007768D01*
X009895Y007826D01*
X009895Y007847D01*
X009922Y007847D01*
X009922Y007782D01*
X010015Y007689D01*
X010422Y007689D01*
X010515Y007782D01*
X010515Y008189D01*
X010422Y008282D01*
X010422Y008281D02*
X010705Y008281D01*
X010628Y008204D02*
X010499Y008204D01*
X010515Y008127D02*
X010613Y008127D01*
X010613Y008050D02*
X010515Y008050D01*
X010515Y007972D02*
X010613Y007972D01*
X010613Y007895D02*
X010515Y007895D01*
X010515Y007818D02*
X010613Y007818D01*
X010654Y007741D02*
X010473Y007741D01*
X010218Y007986D02*
X009717Y007986D01*
X009895Y008127D02*
X009922Y008127D01*
X009937Y008204D02*
X009538Y008204D01*
X009363Y008204D02*
X009363Y008204D01*
X009363Y008127D02*
X009363Y008127D01*
X009363Y008050D02*
X009363Y008050D01*
X009363Y007986D02*
X009363Y007728D01*
X009363Y007986D01*
X009363Y007986D01*
X009363Y007972D02*
X009363Y007972D01*
X009363Y007895D02*
X009363Y007895D01*
X009363Y007818D02*
X009363Y007818D01*
X009363Y007741D02*
X009363Y007741D01*
X009501Y007741D02*
X009964Y007741D01*
X009922Y007818D02*
X009887Y007818D01*
X010015Y008281D02*
X008913Y008281D01*
X008913Y008204D02*
X009188Y008204D01*
X009146Y008127D02*
X008513Y008127D01*
X008513Y008076D02*
X008913Y008076D01*
X008913Y007933D01*
X008655Y007676D01*
X008513Y007676D01*
X008513Y008076D01*
X008513Y008050D02*
X008434Y008050D01*
X008434Y008076D02*
X008434Y007676D01*
X008291Y007676D01*
X008034Y007933D01*
X008034Y008076D01*
X008434Y008076D01*
X008434Y008127D02*
X007513Y008127D01*
X007513Y008076D02*
X007913Y008076D01*
X007913Y007933D01*
X007655Y007676D01*
X007513Y007676D01*
X007513Y008076D01*
X007513Y008050D02*
X007434Y008050D01*
X007434Y008076D02*
X007434Y007676D01*
X007291Y007676D01*
X007034Y007933D01*
X007034Y008076D01*
X007434Y008076D01*
X007434Y008127D02*
X006873Y008127D01*
X006873Y008204D02*
X007034Y008204D01*
X007034Y008281D02*
X006872Y008281D01*
X006913Y008359D02*
X007095Y008359D01*
X007034Y008050D02*
X006873Y008050D01*
X006873Y007972D02*
X007034Y007972D01*
X007072Y007895D02*
X006818Y007895D01*
X006740Y007818D02*
X007149Y007818D01*
X007227Y007741D02*
X006663Y007741D01*
X006283Y007741D02*
X006096Y007741D01*
X006096Y007818D02*
X006206Y007818D01*
X006129Y007895D02*
X006096Y007895D01*
X006096Y007663D02*
X012118Y007663D01*
X012118Y007586D02*
X006096Y007586D01*
X006096Y007509D02*
X006200Y007509D01*
X006138Y007432D02*
X006111Y007432D01*
X005328Y007277D02*
X005328Y007631D01*
X005072Y007887D01*
X005072Y008517D01*
X004775Y007741D02*
X004720Y007741D01*
X004034Y008050D02*
X003964Y008050D01*
X003074Y008050D02*
X002913Y008050D01*
X002913Y007972D02*
X003074Y007972D01*
X003057Y007895D02*
X002874Y007895D01*
X002797Y007818D02*
X002979Y007818D01*
X002491Y006968D02*
X002179Y006968D01*
X002179Y006891D02*
X002491Y006891D01*
X002491Y006814D02*
X002179Y006814D01*
X002179Y006737D02*
X002491Y006737D01*
X002491Y006659D02*
X002179Y006659D01*
X002164Y006582D02*
X002507Y006582D01*
X002531Y006505D02*
X002139Y006505D01*
X002160Y006428D02*
X002531Y006428D01*
X002531Y006350D02*
X002238Y006350D01*
X002315Y006273D02*
X002531Y006273D01*
X002531Y006196D02*
X002392Y006196D01*
X002469Y006119D02*
X002550Y006119D01*
X002717Y005989D02*
X002729Y005978D01*
X002717Y005989D02*
X002717Y006334D01*
X002713Y006659D02*
X002721Y006659D01*
X002713Y006737D02*
X002721Y006737D01*
X002058Y006334D02*
X002808Y005584D01*
X002808Y005545D01*
X002532Y005545D02*
X002414Y005426D01*
X002414Y005151D01*
X003162Y005115D02*
X003241Y005115D01*
X003241Y005192D02*
X003162Y005192D01*
X003162Y005267D02*
X003162Y004797D01*
X003241Y004797D01*
X003241Y005267D01*
X003202Y005267D01*
X003202Y005545D01*
X003202Y005545D01*
X003202Y005267D01*
X003162Y005267D01*
X003202Y005269D02*
X003202Y005269D01*
X003202Y005346D02*
X003202Y005346D01*
X003202Y005423D02*
X003202Y005423D01*
X003202Y005501D02*
X003202Y005501D01*
X003162Y005037D02*
X003241Y005037D01*
X003241Y004960D02*
X003162Y004960D01*
X003162Y004883D02*
X003241Y004883D01*
X003241Y004806D02*
X003162Y004806D01*
X003202Y004757D02*
X003438Y004993D01*
X003202Y004757D02*
X002965Y004521D01*
X001828Y004489D02*
X001803Y004464D01*
X001803Y004224D01*
X001860Y004167D01*
X001805Y004112D01*
X001805Y004126D01*
X001796Y004161D01*
X001778Y004193D01*
X001752Y004219D01*
X001720Y004237D01*
X001707Y004241D01*
X001707Y004363D01*
X001489Y004363D01*
X001489Y004363D01*
X001707Y004363D01*
X001707Y004500D01*
X001707Y004500D01*
X001823Y004500D01*
X001823Y004495D01*
X001828Y004489D01*
X001823Y004497D02*
X001707Y004497D01*
X001707Y004419D02*
X001803Y004419D01*
X001803Y004342D02*
X001707Y004342D01*
X001705Y004363D02*
X001705Y004186D01*
X001548Y004029D01*
X001781Y004188D02*
X001839Y004188D01*
X001803Y004265D02*
X001707Y004265D01*
X001607Y005978D02*
X001476Y005978D01*
X001607Y005978D01*
X001607Y005978D01*
X001476Y005978D02*
X001476Y005978D01*
X001389Y006078D02*
X001290Y006177D01*
X001027Y006177D01*
X000939Y006089D01*
X000939Y006981D01*
X001729Y006981D01*
X001728Y006976D01*
X001728Y006963D01*
X001627Y006963D01*
X001627Y006745D01*
X001369Y006745D01*
X001369Y006648D01*
X001379Y006613D01*
X001397Y006581D01*
X001423Y006555D01*
X001442Y006544D01*
X001409Y006511D01*
X001409Y006271D01*
X001462Y006218D01*
X001443Y006207D01*
X001417Y006181D01*
X001398Y006150D01*
X001389Y006114D01*
X001389Y006078D01*
X001390Y006119D02*
X001348Y006119D01*
X001431Y006196D02*
X000939Y006196D01*
X000939Y006273D02*
X001409Y006273D01*
X001409Y006350D02*
X000939Y006350D01*
X000939Y006428D02*
X001409Y006428D01*
X001409Y006505D02*
X000939Y006505D01*
X000939Y006582D02*
X001396Y006582D01*
X001369Y006659D02*
X000939Y006659D01*
X000939Y006737D02*
X001369Y006737D01*
X001369Y006745D02*
X001627Y006745D01*
X001627Y006745D01*
X001627Y006745D01*
X001627Y006963D01*
X001490Y006963D01*
X001455Y006954D01*
X001423Y006936D01*
X001397Y006910D01*
X001379Y006878D01*
X001369Y006842D01*
X001369Y006745D01*
X001369Y006814D02*
X000939Y006814D01*
X000939Y006891D02*
X001386Y006891D01*
X001627Y006891D02*
X001627Y006891D01*
X001627Y006814D02*
X001627Y006814D01*
X001728Y006968D02*
X000939Y006968D01*
X000939Y007586D02*
X001806Y007586D01*
X001729Y007663D02*
X000939Y007663D01*
X000939Y007741D02*
X001283Y007741D01*
X001206Y007818D02*
X000939Y007818D01*
X000939Y007895D02*
X001129Y007895D01*
X001074Y007972D02*
X000939Y007972D01*
X000939Y008050D02*
X001074Y008050D01*
X001074Y008127D02*
X000939Y008127D01*
X000939Y008204D02*
X001074Y008204D01*
X001074Y008281D02*
X000939Y008281D01*
X000939Y008359D02*
X001152Y008359D01*
X001229Y008436D02*
X000939Y008436D01*
X000939Y008513D02*
X001306Y008513D01*
X001334Y008590D02*
X000939Y008590D01*
X000939Y008668D02*
X001334Y008668D01*
X001279Y008745D02*
X000939Y008745D01*
X000939Y008822D02*
X001202Y008822D01*
X001125Y008899D02*
X000939Y008899D01*
X000939Y008977D02*
X001074Y008977D01*
X001074Y009054D02*
X000939Y009054D01*
X000939Y009131D02*
X001074Y009131D01*
X001074Y009208D02*
X000939Y009208D01*
X000939Y009286D02*
X001078Y009286D01*
X001156Y009363D02*
X000939Y009363D01*
X000939Y009440D02*
X001233Y009440D01*
X000939Y009517D02*
X002254Y009517D01*
X002176Y009440D02*
X001713Y009440D01*
X001791Y009363D02*
X002099Y009363D01*
X002034Y009286D02*
X001868Y009286D01*
X001873Y009208D02*
X002034Y009208D01*
X001473Y009115D02*
X001473Y008115D01*
X001918Y007671D01*
X001953Y006391D02*
X001627Y006391D01*
X001953Y006391D02*
X001953Y006334D01*
X002058Y006334D01*
X000968Y006119D02*
X000939Y006119D01*
X000939Y009594D02*
X008872Y009594D01*
X008849Y009517D02*
X008693Y009517D01*
X008770Y009440D02*
X008849Y009440D01*
X008847Y009363D02*
X008878Y009363D01*
X008913Y009286D02*
X008955Y009286D01*
X009068Y009482D02*
X009146Y009560D01*
X010839Y009560D01*
X010909Y009491D01*
X010909Y009245D01*
X010909Y008615D01*
X010909Y007986D01*
X011190Y008204D02*
X012118Y008204D01*
X012118Y008127D02*
X011205Y008127D01*
X011205Y008050D02*
X012118Y008050D01*
X012118Y007972D02*
X011205Y007972D01*
X011205Y007895D02*
X012118Y007895D01*
X012118Y007818D02*
X011205Y007818D01*
X011164Y007741D02*
X012118Y007741D01*
X012118Y008281D02*
X011113Y008281D01*
X011152Y008359D02*
X012118Y008359D01*
X012118Y008436D02*
X011205Y008436D01*
X011205Y008513D02*
X012118Y008513D01*
X012118Y008590D02*
X011205Y008590D01*
X011205Y008668D02*
X012118Y008668D01*
X012118Y008745D02*
X011205Y008745D01*
X011202Y008822D02*
X012118Y008822D01*
X012118Y008899D02*
X011125Y008899D01*
X011140Y008977D02*
X012118Y008977D01*
X012118Y009054D02*
X011205Y009054D01*
X011205Y009131D02*
X012118Y009131D01*
X012118Y009208D02*
X011205Y009208D01*
X011205Y009286D02*
X012118Y009286D01*
X012118Y009363D02*
X011205Y009363D01*
X011205Y009440D02*
X012118Y009440D01*
X012118Y009517D02*
X011137Y009517D01*
X011001Y009594D02*
X012118Y009594D01*
X010613Y009363D02*
X010515Y009363D01*
X010515Y009286D02*
X010613Y009286D01*
X010613Y009208D02*
X010515Y009208D01*
X010515Y009131D02*
X010613Y009131D01*
X010613Y009054D02*
X010515Y009054D01*
X010449Y008977D02*
X010678Y008977D01*
X010693Y008899D02*
X010434Y008899D01*
X010511Y008822D02*
X010616Y008822D01*
X010613Y008745D02*
X010515Y008745D01*
X010515Y008668D02*
X010613Y008668D01*
X010003Y008899D02*
X009213Y008899D01*
X009232Y008822D02*
X009136Y008822D01*
X009290Y008977D02*
X009988Y008977D01*
X009922Y009054D02*
X009863Y009054D01*
X009717Y009245D02*
X010218Y009245D01*
X009925Y008822D02*
X009848Y008822D01*
X009571Y009054D02*
X009509Y009054D01*
X009521Y008436D02*
X009559Y008436D01*
X009205Y008436D02*
X009006Y008436D01*
X008851Y008359D02*
X009976Y008359D01*
X009922Y008436D02*
X009875Y008436D01*
X009145Y008050D02*
X008913Y008050D01*
X008913Y007972D02*
X009145Y007972D01*
X009145Y007895D02*
X008874Y007895D01*
X008797Y007818D02*
X009153Y007818D01*
X009225Y007741D02*
X008720Y007741D01*
X008513Y007741D02*
X008434Y007741D01*
X008434Y007818D02*
X008513Y007818D01*
X008513Y007895D02*
X008434Y007895D01*
X008434Y007972D02*
X008513Y007972D01*
X008227Y007741D02*
X007720Y007741D01*
X007797Y007818D02*
X008149Y007818D01*
X008072Y007895D02*
X007874Y007895D01*
X007913Y007972D02*
X008034Y007972D01*
X008034Y008050D02*
X007913Y008050D01*
X007913Y008204D02*
X008034Y008204D01*
X008034Y008281D02*
X007913Y008281D01*
X007851Y008359D02*
X008095Y008359D01*
X008068Y008899D02*
X007878Y008899D01*
X007913Y008977D02*
X008034Y008977D01*
X008034Y009054D02*
X007913Y009054D01*
X007913Y009208D02*
X008034Y009208D01*
X008034Y009286D02*
X007913Y009286D01*
X007847Y009363D02*
X008099Y009363D01*
X008176Y009440D02*
X007770Y009440D01*
X007693Y009517D02*
X008254Y009517D01*
X008434Y009517D02*
X008513Y009517D01*
X008513Y009440D02*
X008434Y009440D01*
X008434Y009363D02*
X008513Y009363D01*
X008513Y009286D02*
X008434Y009286D01*
X007513Y009286D02*
X007434Y009286D01*
X007434Y009363D02*
X007513Y009363D01*
X007513Y009440D02*
X007434Y009440D01*
X007434Y009517D02*
X007513Y009517D01*
X007254Y009517D02*
X006693Y009517D01*
X006770Y009440D02*
X007176Y009440D01*
X007099Y009363D02*
X006847Y009363D01*
X006913Y009286D02*
X007034Y009286D01*
X007034Y009208D02*
X006913Y009208D01*
X006913Y009054D02*
X007034Y009054D01*
X007034Y008977D02*
X006913Y008977D01*
X006878Y008899D02*
X007068Y008899D01*
X006513Y009286D02*
X006434Y009286D01*
X006434Y009363D02*
X006513Y009363D01*
X006513Y009440D02*
X006434Y009440D01*
X006434Y009517D02*
X006513Y009517D01*
X007434Y007972D02*
X007513Y007972D01*
X007513Y007895D02*
X007434Y007895D01*
X007434Y007818D02*
X007513Y007818D01*
X007513Y007741D02*
X007434Y007741D01*
X008104Y006910D02*
X008141Y006785D01*
X008241Y006785D02*
X008279Y006860D01*
X008079Y006684D02*
X008229Y006360D01*
X008079Y006036D01*
X008004Y005947D01*
X008104Y005810D01*
X008279Y005859D01*
X008436Y005776D02*
X008436Y005673D01*
X008802Y005673D01*
X008802Y005920D01*
X008802Y006086D01*
X008861Y006086D01*
X008861Y005673D01*
X008802Y005673D01*
X008802Y005613D01*
X008479Y005613D01*
X008441Y005652D01*
X008071Y005652D01*
X008062Y005660D01*
X008238Y005660D01*
X008238Y005660D01*
X008321Y005660D01*
X008436Y005776D01*
X008436Y005732D02*
X008393Y005732D01*
X008067Y005655D02*
X008802Y005655D01*
X008802Y005732D02*
X008861Y005732D01*
X008861Y005810D02*
X008802Y005810D01*
X008802Y005887D02*
X008861Y005887D01*
X008861Y005964D02*
X008802Y005964D01*
X008802Y006041D02*
X008861Y006041D01*
X008500Y006582D02*
X008478Y006582D01*
X008079Y006684D02*
X008004Y006772D01*
X006824Y005741D02*
X006745Y005663D01*
X006745Y005383D01*
X006568Y005206D01*
X005662Y005525D02*
X005662Y006313D01*
X005721Y006371D01*
X006261Y006310D02*
X006261Y006283D01*
X006637Y006283D01*
X006637Y006283D01*
X006261Y006283D01*
X005328Y005820D02*
X005328Y007277D01*
X005328Y005820D02*
X005270Y005763D01*
X005270Y005525D01*
X011344Y004883D02*
X011744Y004883D01*
X011748Y004960D02*
X011422Y004960D01*
X011431Y005037D02*
X011744Y005037D01*
X011744Y004806D02*
X011382Y004806D01*
X011428Y004728D02*
X011771Y004728D01*
X011744Y004651D02*
X011431Y004651D01*
X011431Y004574D02*
X011744Y004574D01*
X011747Y004497D02*
X011431Y004497D01*
D36*
X011548Y004127D03*
X011548Y003734D03*
X010957Y003734D03*
X010957Y004127D03*
X009698Y004009D03*
X009698Y003694D03*
X009265Y003300D03*
X009146Y004088D03*
X008831Y004088D03*
X009698Y004324D03*
X009698Y004718D03*
X008831Y005308D03*
X009304Y005899D03*
X009737Y005466D03*
X010446Y005466D03*
X011036Y005466D03*
X009265Y006489D03*
X007729Y005978D03*
X007611Y006293D03*
X006824Y005741D03*
X006509Y005545D03*
X006154Y006056D03*
X005721Y006371D03*
X006194Y006529D03*
X005957Y007277D03*
X005642Y007277D03*
X005328Y007277D03*
X005013Y007277D03*
X004698Y007277D03*
X004383Y007277D03*
X004068Y007277D03*
X004776Y006568D03*
X004776Y006096D03*
X004619Y005781D03*
X004186Y005387D03*
X003831Y005545D03*
X003398Y005860D03*
X002729Y005978D03*
X002414Y006371D03*
X002414Y006686D03*
X002257Y005761D03*
X002532Y005545D03*
X002965Y004993D03*
X002965Y004521D03*
X003438Y004521D03*
X003438Y004993D03*
X004068Y004088D03*
X003674Y003635D03*
X003674Y003300D03*
X004383Y003300D03*
X005131Y004088D03*
X005564Y004088D03*
X005997Y004088D03*
X005997Y004521D03*
X005997Y004954D03*
X005564Y004954D03*
X005131Y004954D03*
X005131Y004521D03*
X005564Y004521D03*
X006784Y003615D03*
X006784Y003300D03*
X007650Y003300D03*
X007808Y003930D03*
X006981Y005112D03*
X007572Y005505D03*
X007768Y005308D03*
X006194Y007710D03*
X006194Y008615D03*
X009068Y009482D03*
X002453Y004009D03*
X001705Y004363D03*
X001154Y006371D03*
X001154Y006765D03*
D37*
X001154Y006371D02*
X001154Y006332D01*
X001509Y005978D01*
X001607Y005978D01*
X001981Y004560D02*
X002414Y004560D01*
X006053Y005525D02*
X006249Y005525D01*
X011469Y006529D02*
X011705Y006529D01*
X011705Y005840D01*
D38*
X010091Y006529D02*
X010131Y006785D01*
X008831Y006785D01*
X008241Y006785D01*
X008141Y006785D01*
X008126Y006779D01*
X008112Y006771D01*
X008099Y006760D01*
X008089Y006747D01*
X008082Y006732D01*
X008078Y006716D01*
X008077Y006700D01*
X008079Y006683D01*
X007729Y005978D02*
X007729Y005741D01*
X008028Y005442D01*
X008200Y005442D01*
X008363Y005442D01*
X008831Y004974D01*
X008831Y005308D01*
X008694Y004974D02*
X008422Y004702D01*
X008200Y004702D01*
X008338Y004423D02*
X008201Y004285D01*
X008338Y004423D02*
X008831Y004423D01*
M02*
